<?xml version="1.0" encoding="utf-8"?>
<!-- Generator: Adobe Illustrator 23.0.1, SVG Export Plug-In . SVG Version: 6.00 Build 0)  -->
<svg version="1.1"
	 id="svg2" xmlns:cc="http://creativecommons.org/ns#" xmlns:dc="http://purl.org/dc/elements/1.1/" xmlns:inkscape="http://www.inkscape.org/namespaces/inkscape" xmlns:rdf="http://www.w3.org/1999/02/22-rdf-syntax-ns#" xmlns:sodipodi="http://sodipodi.sourceforge.net/DTD/sodipodi-0.dtd" xmlns:svg="http://www.w3.org/2000/svg"
	 xmlns="http://www.w3.org/2000/svg" xmlns:xlink="http://www.w3.org/1999/xlink" x="0px" y="0px" viewBox="0 0 850.4 850.4"
	 style="enable-background:new 0 0 850.4 850.4;" xml:space="preserve">
<style type="text/css">
	.st0{fill:#E2001A;}
	.st1{fill:#FFFFFF;}
	.st2{fill-rule:evenodd;clip-rule:evenodd;fill:#FFFFFF;}
</style>
<path class="st0" d="M850.4,425.2c0,234.8-190.4,425.2-425.2,425.2S0,660,0,425.2S190.4,0,425.2,0S850.4,190.4,850.4,425.2z"/>
<sodipodi:namedview  bordercolor="#666666" borderopacity="1.0" fit-margin-bottom="0" fit-margin-left="0" fit-margin-right="0" fit-margin-top="0" id="base" inkscape:current-layer="layer1" inkscape:cx="247.9485" inkscape:cy="441.95185" inkscape:document-units="px" inkscape:pageopacity="0.0" inkscape:pageshadow="2" inkscape:window-height="705" inkscape:window-maximized="1" inkscape:window-width="1366" inkscape:window-x="-8" inkscape:window-y="-8" inkscape:zoom="0.35" pagecolor="#ffffff" showgrid="false">
	</sodipodi:namedview>
<path id="S" class="st1" d="M290.3,372.9l27.6-42.5c-153.1-85-225.4,99.9-87.2,123.3c68,10.6,8.5,68-55.3,12.8l-27.6,46.8
	C305.2,617.4,407.3,409,245.7,394.1C211.7,392,209.5,338.9,290.3,372.9z"/>
<path id="P" class="st2" d="M339.2,311.2v223.2H403V460h48.9c78.7,0,80.8-151,0-148.8H339.2z M403,360.1h25.5
	c27.6,0,27.6,53.2,0,53.2H403V360.1z"/>
<path id="D" class="st2" d="M526.4,311.2v223.2h97.8c125.4,2.1,125.4-223.2,2.1-223.2H526.4z M588,364.4h10.6
	c78.7,0,78.7,119.1,0,119.1H588V364.4z"/>
</svg>
