<?xml version="1.0" encoding="utf-8"?>
<svg version="1.1" id="svg2" xmlns:svg="http://www.w3.org/2000/svg" xmlns="http://www.w3.org/2000/svg" x="0px" y="0px" viewBox="0 0 850.4 850.4" style="enable-background:new 0 0 850.4 850.4;" xml:space="preserve">
<style type="text/css">
	.st0{fill:#E20613;}
	.st1{fill-rule:evenodd;clip-rule:evenodd;fill:#FFFFFF;}
	.st2{fill:#FFFFFF;}
</style>
<path class="st0" d="M850.4,425.2c0,234.8-190.4,425.2-425.2,425.2S0,660,0,425.2S190.4,0,425.2,0S850.4,190.4,850.4,425.2z"/>
<sodipodi:namedview  bordercolor="#666666" borderopacity="1.0" fit-margin-bottom="0" fit-margin-left="0" fit-margin-right="0" fit-margin-top="0" id="base" inkscape:current-layer="layer1" inkscape:cx="247.9485" inkscape:cy="441.95185" inkscape:document-units="px" inkscape:pageopacity="0.0" inkscape:pageshadow="2" inkscape:window-height="705" inkscape:window-maximized="1" inkscape:window-width="1366" inkscape:window-x="-8" inkscape:window-y="-8" inkscape:zoom="0.35" pagecolor="#ffffff" showgrid="false">
	</sodipodi:namedview>
<g>
	<path class="st1" d="M753.2,504c11.4,0,22.2-9,24-20.3c1.9-12-6.4-20.9-18.2-20.9c-10.6,0-21.3,9.4-23.1,20.3
		C734.2,494.7,741.7,504,753.2,504L753.2,504z M653.3,502h65l4.8-32h-30l3.1-20.7h26.9l4.8-32H701l2.8-18.9h30l4.8-32h-65L653.3,502
		L653.3,502z M646.6,502L626,431.9l37.8-65.4h-36.9L599,424.2l8.5-57.7h-35L552.1,502h35l9.4-62.2L609,502H646.6L646.6,502z
		 M447,502h33.6l6-39.7c1.9-12.8,2.3-25.4,3.4-38.1l14.6,77.9h33.6l20.5-135.6h-33.6l-5.2,34.5c-2.4,15.6-2.1,31.1-3.1,46.7
		l-16-81.3h-33.3L447,502L447,502z M385.3,502l4.8-32h-26.2l15.6-103.6h-35L324.1,502H385.3L385.3,502z M221.1,502h65l4.8-32h-30
		l3.1-20.7h27l4.8-32h-26.9l2.9-18.9h30l4.8-32h-65L221.1,502L221.1,502z M207.2,502l20.5-135.6h-35L172.2,502H207.2L207.2,502z
		 M122.8,400.3c15.9,0,15.6,20.5,13.4,35.2c-1.9,12.8-7.8,33.6-23.8,33.8L122.8,400.3L122.8,400.3z M72.5,502H103
		c21.3,0,59.7-5.8,69.1-68.3c6.2-41-11.3-67.2-51-67.2H93L72.5,502L72.5,502z M432.9,502l17.2-110.8h-35L397.9,502H432.9L432.9,502z
		"/>
	<polygon class="st2" points="457.2,346 389.6,366.4 451.2,384.5 	"/>
</g>
</svg>
