<?xml version="1.0" encoding="utf-8"?><svg version="1.1" id="gruene-logo" xmlns="http://www.w3.org/2000/svg" xmlns:xlink="http://www.w3.org/1999/xlink" width="100%" height="100%" x="0px" y="0px" viewBox="0 0 850.4 850.4" style="enable-background:new 0 0 850.4 850.4;" xml:space="preserve">
<path class="st0" d="M850.4,425.2c0,234.8-190.4,425.2-425.2,425.2S0,660,0,425.2S190.4,0,425.2,0S850.4,190.4,850.4,425.2z"/>
<polygon id="Balken" class="st1" points="70,589.4 506.2,589.4 510.5,564.3 74.2,564.3 "/>
<path id="Blume" class="st2" d="M780,371.2c-0.1-0.9-2.5-1.8-4.1-3.1c-5.4-4.5-24.9-23.7-63.2-22.4c-4.8,0.2-9.3,0.6-13.3,1.3
	c8.2-2.6,12.4-4.2,14.8-5.2c3-1.2,22.5-7.9,33-42.2c0.9-2.9,3.4-10,2.8-10.5c-0.8-0.7-7.4,0.5-14,4.6c-6.7,4-29,7.6-31.7,8
	c-1.6,0.2-8.1-0.7-17.9,4.4c11.1-11.4,22.8-27.5,25.9-50.2c1.5-10.9,0.9-15.3,0.4-15.3c-0.7,0-1,0.1-1.8,0.3
	c-2.5,0.7-5,2.8-13.1,8.2c-8.1,5.4-16.8,11.5-16.8,11.5s3-29.6,2-30.3c-0.9-0.7-17.7-0.5-43.5,28.2c0,0,2.9-24.6-1.9-33.9
	c0,0-1.3-6.7-2.4-10.2c-0.5-1.8-1.9-3.6-2.1-3.5c-0.3,0.2-2.6,0.6-6.2,4.8c-5.7,6.5-32.1,14.5-36.5,48.7
	c-3.3-13.8-10.3-32.3-27.7-41.6c-9.8-9.6-14.2-12.5-14.7-12.2c-0.4,0.2-0.3,4.5-1.7,14.1c-1.7,10.8-3.2,14.2-3.2,14.2
	s-18.2-16-18.7-16.5c-0.9-0.8-11.9,34.3-8.7,51.8c0,0-5.8-4.5-16.2-9.8c-11.9-6.1-31.9-7.2-31.8-6.2c0.2,1.6,16.9,34.1,23.9,45.5
	c0,0-44.8-7.7-44.1-4.9c0.3,0.9,1.3,2.7,3.1,10.2c0,0-17.6-0.4-17.4,1.1c0.2,1.6,13.3,23.3,14.3,24.4c0,0-13.6,2.6-16.5,2.8
	c-1.9,0.1,9.1,30.6,39.4,38.2c4.3,1.1,8.4,1.9,12.4,2.5c3.4,0.3,7.6,0.7,11.3,1.1c18,0.7,29.8-3.9,27.8-10.6c0,0-0.6-2.5-19.1-9.2
	c0,0,0.5-2.2,1.7-2.5c1.2-0.3,20.5,6.7,19.1,5.6c-1.4-1.1-8.4-9-7.1-8.9c1.3,0.1,10.3,3.9,13.3,1.1c2.9-2.7,4.7-7.6,6.5-8.7
	c1.9-1.1-5-7.5,4.1-4.5c0,0,6.2-3.5,1.3-9.1c-4.9-5.7-20.3-23.9,4.9-1.9c6,5.3,21.1-10.8,19.8-19.5c0,0,6,6.1,7.3,6.7
	c1.3,0.7,9.7,1.7,11.6-1.3c0.9-1.3-3.1-13.8-0.5-19.2c0,0,1.1-0.1,2.1,1.1c1,1.2,1.1,14.1,5.7,16.6c0,0,5.1-3,6-5.2
	c0.9-2.3-1.4,14,14,7c0,0,7.5-6.7,9.6-6.8c2.1-0.2-1.6,7.9,0.3,10.8c1.9,2.9,8.2,4.8,10.2,1.2c2-3.6,11.6-10.8,12.4-10.5
	c0.8,0.3-4.9,15.3-5.5,16.8c-0.9,2.1-1.6,5.3-1.6,5.3s0.7,4.2,6,5.4c0,0,9.9-5.8,20.2-13.3c-1.1,1.3-2.2,2.6-3.3,4.1
	c0,0-13.3,13.7-13.3,15.7c0,2,4.6,6.4,8.3,3.9c3.7-2.5,12.8-6.2,13.5-5.6c0.8,0.7,2.2,2.5,0.3,3.6c-1.9,1.1-12.4,6.6-12.4,6.6
	s12,0.8,26.6-2.1c-15.9,6.4-21.4,16.2-21.2,17.2c0.5,3.1,25.1-3.2,25.8-1.7c3.5,8-7.8,3.1-12.8,3.9c-5,0.8-17.7,1.1-6,11.2
	c0,0,2.2,0.2-3.6,3.6c-5.8,3.4,12.9,5.5,15.2,7.9c2.2,2.5-18.6-0.2-18.2,6c0.4,6.3-3.6,2.3,10.2,17.1c0,0-8.3-1.9-9.3-0.8
	c-1,1.2,18.2,17,18.1,21.6c0,0-3.9,2.7-5.6,0.3c-1.7-2.4-13.2-15.2-15.1-15.5c-1.4-0.3-4.1,0.4-5.4,2.9c0,0,5.1,11.8,3.5,12.1
	c-1.6,0.3-9.5-5.2-9.5-5.2s-5.2,2.3-3.5,7c1.7,4.7,15.8,20.7,15,21.7c0,0-1.2,2.6-3,2.4c-1.8-0.2-11.6-17.9-14-18.5
	c-2.4-0.7,2.8,16.5,2.8,16.5s-8.8-9.3-11.1-11.2c-2.3-1.9-2.7,2.1-2.7,2.1l2.5,19.6c0,0-27.4-40.9-20.7,7.9c0,0-0.6,2.8-1.5,2.7
	c-0.9-0.1-6.7-16.1-6.1-20.5c0.7-4.4-4.8,12.1-4.8,12.1s-8.6-34.2-26.4,0.9c0,0-1.2-13.2-4-15.5c-2.7-2.3-4.9-3.1-5.7-3.1
	c-0.6,0-4.2-0.1-7.4,6C547.1,478,539,498.9,536.8,517c-0.4,12.6,1,35.2,0.3,40.1c-0.4,2.8,0.2,3.1,0.7,4.1c0.1,0.3,4.8-3.6,6.3-4.6
	c2.2-1.5,25.1-32.3,26.5-40c0,0,12.2,53.6,16.4,59.4c0.9,1.2,1.6,2.6,2.3,1.7c1.2-1.9,3-6.9,4.4-7.3c1.8-0.5,6.9-1.2,9.6-8.8
	c2.7-7.7,7.6-15.1,9.9-35c0,0,26,33.1,29.3,36.2c1.3,1.2,8.4-10.5,11.5-29.4c3.1-18.9-3.6-44.2-7.8-45c0,0-1.8-2.8,3.2-1
	c2.8,1,13.6,19.8,38.5,34c4.2,2.4,13.1,2.4,13.2,2.3c2-5.6-17.5-56.8-17.5-56.8s0.5-0.6,4.4,1c3.9,1.6,41.3,25.8,63.9,14.4
	c4.6-2.3,4.9-2.8,4.9-2.8c2.6-11.1-17.4-32.2-29.6-41.8c0,0,32.2-1.3,37.1-9.8c0,0,5.9-2.1,9-6.4c0.5-0.7-3.5-8.1-8.1-11.3
	c-12.1-8.4-14.8-11.6-14.8-11.6s3.4-4.1,8.3-5.6c4.9-1.5,20.8-11.3,16.5-16.1C775.1,376.8,780.2,372.4,780,371.2"/>
<g id="Typo">
	<path class="st3" d="M486.4,542.1l2.6-15.7c0.4-2.4,0.7-5.2,0.9-8.4c0.2-3.2,0.3-7,0.4-11.3c0.2,1.9,0.5,3.9,0.9,6
		c0.4,2.1,0.8,4.4,1.3,6.8l4.9,22.6h16.8l10.2-61.5h-16.8l-2.3,13.8c-0.4,2.6-0.8,5.8-1.1,9.6c-0.3,3.8-0.6,8.4-0.8,13.7l-0.9-5.4
		c-0.4-2.1-0.7-4.1-1-5.7c-0.3-1.6-0.6-3.1-0.9-4.4l-5-21.6h-15.9l-10.2,61.5H486.4z"/>
	<polygon class="st3" points="462.3,542.1 464.8,527.4 449.8,527.4 451.2,518.8 464.7,518.8 467.1,504 453.7,504 455.1,495.3 
		470.1,495.3 472.5,480.6 440.1,480.6 429.9,542.1 	"/>
	<path class="st3" d="M394,542.1l2.6-15.7c0.4-2.4,0.7-5.2,0.9-8.4c0.2-3.2,0.3-7,0.4-11.3c0.2,1.9,0.5,3.9,0.9,6
		c0.4,2.1,0.8,4.4,1.3,6.8l4.9,22.6h16.8l10.2-61.5h-16.8l-2.3,13.8c-0.4,2.6-0.8,5.8-1.1,9.6c-0.3,3.8-0.6,8.4-0.8,13.7l-0.9-5.4
		c-0.4-2.1-0.7-4.1-1-5.7c-0.3-1.6-0.6-3.1-0.9-4.4l-5-21.6h-15.8l-10.2,61.5H394z"/>
	<path class="st3" d="M308.3,500.4c-0.4,2.3-1.4,4.1-2.9,5.6c-1.6,1.5-3.4,2.2-5.4,2.2h-1.2l2.4-14.7h0.6
		C306.9,493.5,309,495.8,308.3,500.4 M325.5,501.1c1.2-7-0.4-12.3-4.8-16.1c-3.4-2.9-9.1-4.4-16.9-4.4h-17.9l-10.2,61.5H293
		l3.6-21.5l0.6-4.1c0.2,0.9,0.3,1.6,0.4,2.2c0.1,0.6,0.2,1.1,0.2,1.5l5,21.9h18.9l-8.7-25.6C320.1,513.7,324.2,508.6,325.5,501.1"/>
	<path class="st3" d="M248.6,519.5h6.5c-0.2,1.2-0.5,2.3-1,3.3c-0.5,1-1,1.8-1.6,2.5c-0.6,0.7-1.3,1.2-2.2,1.6
		c-0.8,0.4-1.7,0.6-2.6,0.6c-2.3,0-3.8-1.1-4.5-3.4c-0.7-2.3-0.6-5.9,0.2-11c2-11.8,5.3-17.7,10.1-17.7c1.4,0,2.4,0.6,3.1,1.7
		c0.7,1.1,1,2.7,1,4.6l17.9-5.9c-2.9-10.1-9.5-15.1-19.7-15.1c-7.7,0-14.2,2.8-19.6,8.3c-5.4,5.5-8.8,13.1-10.4,22.7
		c-1.6,9.5-0.6,17,2.9,22.4c3.5,5.4,9.2,8.1,17,8.1c7.9,0,14.4-2.8,19.3-8.3c4.5-5.1,7.8-13.3,9.7-24.8l0.4-2.5h-24.4L248.6,519.5z"
		/>
	<polygon class="st3" points="187.1,542.1 189.6,527.4 174.6,527.4 176,518.8 189.5,518.8 191.9,504 178.5,504 179.9,495.3 
		194.9,495.3 197.4,480.6 164.9,480.6 154.7,542.1 	"/>
	<polygon class="st3" points="156.9,480.6 139.5,480.6 129.2,542.1 146.7,542.1 	"/>
	<path class="st3" d="M110,512c-1.7,10-5.6,15.1-11.9,15.4l5.2-31.3h0.5c2.7,0,4.6,1.4,5.7,4.3C110.6,503.2,110.8,507.1,110,512
		 M127.9,511.4c1.7-10.4-0.1-18.4-5.4-24.2c-4.1-4.4-10.4-6.6-19-6.6H88.4l-10.2,61.5h16.3c9,0,16.2-2.4,21.5-7.1
		C122.2,529.5,126.2,521.6,127.9,511.4"/>
	<path class="st3" d="M517.4,428.1c-0.9,5.4-2,9.4-3.4,11.9c-1.4,2.5-3,3.8-5,3.8c-3.7,0-4.5-5.8-2.6-17.5c1.6-9.7,4.3-14.6,8-14.6
		C518.3,411.7,519.3,417.2,517.4,428.1 M532.5,405.3c-3.1-5.5-8.2-8.3-15.3-8.3c-7.1,0-13.1,2.7-18.2,8.2c-5,5.4-8.3,12.8-9.9,22.1
		c-1.6,9.9-0.9,17.5,2.4,23c3.2,5.5,8.5,8.3,15.9,8.3c6.8,0,12.6-2.7,17.6-8.2c4.9-5.5,8.2-12.9,9.7-22.2
		C536.3,418.4,535.6,410.8,532.5,405.3"/>
	<path class="st3" d="M467.8,418.1c-0.9,5.3-2.9,7.9-6.2,7.9c-3.4,0-4.7-2.6-3.8-7.8c0.9-5.5,3.1-8.3,6.5-8.3
		C467.5,409.9,468.7,412.7,467.8,418.1 M481.3,403c-3.2-4-8-6-14.3-6c-6.7,0-12.5,2-17.3,6.1c-4.8,4.1-7.8,9.3-8.9,15.7
		c-0.9,5.3-0.1,9.8,2.3,13.6c2.5,3.7,5.9,5.5,10.4,5.5c1.8,0,3.9-0.6,6.4-1.8c-0.8,1-1.6,1.8-2.3,2.7c-0.7,0.8-1.3,1.5-1.8,2.2
		l-13.2,17.5h18.8l7.7-10.6c9-12.4,14.1-22.1,15.3-29.1C485.6,412.4,484.5,407.1,481.3,403"/>
	<path class="st3" d="M388,458.5c5.9,0,11.2-1.9,15.7-5.7c4.5-3.8,7.3-8.6,8.2-14.5c0.6-3.4,0.3-6.4-0.9-9c-1.2-2.6-3.4-5.1-6.7-7.5
		l-2.4-1.9c-2.1-1.6-3-3.1-2.8-4.7c0.2-1,0.7-1.8,1.8-2.5c1-0.7,2.1-1.1,3.5-1.1c1.8,0,3.4,0.6,5.1,1.8c1.6,1.2,3,2.9,4,5l3.1-18.4
		c-3.9-2-7.9-3-12.1-3c-4.7,0-8.8,1.3-12.6,3.8c-1.3,0.9-2.6,1.9-3.7,3.1c-1.1,1.2-2.1,2.5-3.1,3.9c-1.9,3-3.1,5.9-3.5,8.7
		c-0.3,1.6-0.3,3.2-0.2,4.6c0.1,1.5,0.5,2.9,1.1,4.2c0.6,1.4,1.5,2.7,2.6,4c1.1,1.3,2.5,2.6,4.2,3.9l2.5,2c1.8,1.5,2.6,3.1,2.3,4.7
		c-0.2,1.1-0.8,2-1.9,2.8c-1.1,0.7-2.4,1.1-3.9,1.1c-4,0-7.3-2.2-10-6.7l-3.1,18.9C379.6,457.7,383.9,458.5,388,458.5"/>
	<polygon class="st3" points="378.4,397 360.9,397 350.7,458.5 368.2,458.5 	"/>
	<path class="st3" d="M314.8,458.5l2.6-15.7c0.4-2.4,0.7-5.2,0.9-8.5c0.2-3.2,0.3-7,0.4-11.3c0.2,1.9,0.5,3.9,0.9,6
		c0.4,2.1,0.8,4.4,1.3,6.8l4.9,22.6h16.8l10.2-61.5h-16.8l-2.3,13.8c-0.4,2.6-0.8,5.8-1.1,9.6c-0.3,3.8-0.6,8.4-0.8,13.7l-0.9-5.4
		c-0.4-2.2-0.7-4.1-1-5.7c-0.3-1.6-0.6-3.1-0.9-4.4l-5-21.6h-15.9L298,458.5H314.8z"/>
	<path class="st3" d="M279.9,428.4c-1.7,10-5.6,15.1-11.9,15.4l5.2-31.3h0.5c2.7,0,4.6,1.4,5.7,4.3
		C280.5,419.7,280.7,423.5,279.9,428.4 M297.8,427.8c1.7-10.4-0.1-18.4-5.4-24.2c-4.1-4.4-10.4-6.6-19-6.6h-15.1L248,458.5h16.3
		c9,0,16.2-2.4,21.5-7.1C292.1,445.9,296.1,438,297.8,427.8"/>
	<path class="st3" d="M212.1,458.5l2.6-15.7c0.4-2.4,0.7-5.2,0.9-8.5c0.2-3.2,0.3-7,0.4-11.3c0.2,1.9,0.5,3.9,0.9,6
		c0.4,2.1,0.8,4.4,1.3,6.8l4.9,22.6H240l10.2-61.5h-16.8l-2.3,13.8c-0.4,2.6-0.8,5.8-1.1,9.6c-0.3,3.8-0.6,8.4-0.8,13.7l-0.9-5.4
		c-0.4-2.2-0.7-4.1-1-5.7c-0.3-1.6-0.6-3.1-0.9-4.4l-5-21.6h-15.9l-10.2,61.5H212.1z"/>
	<path class="st3" d="M124.9,415.2c-0.3,1.7-1.1,3-2.5,3.9c-1.4,0.9-3.1,1.4-5.2,1.4h-1.2l1.8-10.6c0.4,0,0.8,0,1.1-0.1
		c0.3,0,0.5,0,0.7,0C123.7,409.8,125.5,411.6,124.9,415.2 M115.3,433.4c2.3,0,4,0.5,5.1,1.6c1.1,1.1,1.5,2.5,1.2,4.4
		c-0.3,1.9-1.2,3.4-2.7,4.5c-1.5,1.1-3.3,1.7-5.5,1.7c-0.2,0-0.4,0-0.6,0c-0.2,0-0.5,0-0.9-0.1l2-12.2H115.3z M142.3,414.5
		c0.9-5.2-0.3-9.4-3.5-12.7c-3.1-3.2-8.5-4.8-16.1-4.8h-20.3l-10.2,61.5h24.4c5.8,0,10.8-1.6,14.9-4.9c4.1-3.2,6.6-7.5,7.5-12.7
		c0.7-4.2,0.2-7.4-1.6-9.6c-1.8-2.2-4.9-3.7-9.3-4.3C136.3,426.3,141,422.2,142.3,414.5"/>
	<path class="st3" d="M354.7,520.7c-0.5,2.8-1.1,4.7-1.9,5.8c-0.8,1-2.1,1.6-3.7,1.6c-1.6,0-2.7-0.6-3.2-1.7c-0.5-1.1-0.5-3-0.1-5.7
		l6.6-39.7h-17.5l-6.8,41.2c-1.3,7.9,0.3,13.6,4.8,17.2c3.6,2.8,8.4,4.2,14.3,4.2c5.3,0,10-1.3,14.1-3.8c3-1.9,5.4-4.1,6.9-6.4
		c1.6-2.3,2.7-5.2,3.3-8.9l7.2-43.5h-17.4L354.7,520.7z"/>
	<path class="st3" d="M354.9,464.9c-1.1-1.2-2.5-1.9-4.4-1.9c-1.8,0-3.5,0.6-5,1.9c-1.5,1.2-2.4,2.7-2.7,4.5
		c-0.3,1.7,0.1,3.2,1.2,4.5c1.1,1.2,2.6,1.9,4.4,1.9c1.8,0,3.5-0.6,5-1.9c1.5-1.3,2.4-2.7,2.7-4.5
		C356.4,467.6,356,466.1,354.9,464.9"/>
	<path class="st3" d="M373.5,464.9c-1.1-1.3-2.6-1.9-4.4-1.9c-1.9,0-3.5,0.6-5,1.9c-1.5,1.2-2.4,2.7-2.7,4.5
		c-0.3,1.8,0.1,3.3,1.2,4.5c1.1,1.2,2.6,1.9,4.5,1.9c1.8,0,3.5-0.6,5-1.9c1.5-1.2,2.4-2.7,2.7-4.4
		C375,467.7,374.6,466.2,373.5,464.9"/>
	<path class="st3" d="M172.6,436.7c-0.5,2.8-1.1,4.7-1.9,5.8c-0.8,1-2.1,1.6-3.7,1.6c-1.6,0-2.7-0.6-3.2-1.7c-0.5-1.1-0.5-3-0.1-5.7
		l6.6-39.7h-17.4l-6.9,41.2c-1.3,7.9,0.3,13.6,4.8,17.2c3.6,2.8,8.3,4.2,14.3,4.2c5.3,0,10-1.3,14.1-3.8c3.1-1.9,5.4-4.1,6.9-6.4
		c1.6-2.3,2.7-5.2,3.3-8.9l7.2-43.5h-17.5L172.6,436.7z"/>
	<path class="st3" d="M172.9,380.9c-1.1-1.2-2.5-1.9-4.4-1.9c-1.8,0-3.5,0.6-5,1.9c-1.5,1.2-2.4,2.7-2.7,4.5
		c-0.3,1.7,0.1,3.2,1.2,4.5c1.1,1.2,2.6,1.9,4.4,1.9c1.8,0,3.5-0.6,5-1.9c1.5-1.3,2.4-2.7,2.7-4.5
		C174.4,383.6,174,382.1,172.9,380.9"/>
	<path class="st3" d="M191.4,380.9c-1.1-1.3-2.6-1.9-4.4-1.9c-1.9,0-3.5,0.6-5,1.9c-1.5,1.2-2.4,2.7-2.7,4.5
		c-0.3,1.8,0.1,3.3,1.2,4.5c1.1,1.2,2.6,1.9,4.5,1.9c1.8,0,3.5-0.6,5-1.9c1.5-1.2,2.4-2.7,2.7-4.4
		C192.9,383.7,192.5,382.2,191.4,380.9"/>
</g>
</svg>
