<?xml version="1.0" encoding="utf-8"?>
<!-- Generator: Adobe Illustrator 23.0.1, SVG Export Plug-In . SVG Version: 6.00 Build 0)  -->
<svg version="1.1"
	 id="svg2" xmlns:cc="http://creativecommons.org/ns#" xmlns:dc="http://purl.org/dc/elements/1.1/" xmlns:inkscape="http://www.inkscape.org/namespaces/inkscape" xmlns:rdf="http://www.w3.org/1999/02/22-rdf-syntax-ns#" xmlns:sodipodi="http://sodipodi.sourceforge.net/DTD/sodipodi-0.dtd" xmlns:svg="http://www.w3.org/2000/svg"
	 xmlns="http://www.w3.org/2000/svg" xmlns:xlink="http://www.w3.org/1999/xlink" x="0px" y="0px" viewBox="0 0 850.4 850.4"
	 style="enable-background:new 0 0 850.4 850.4;" xml:space="preserve">
<style type="text/css">
	.st0{fill:#009EE0;}
	.st1{fill:#E2001A;}
	.st2{fill:none;stroke:#ED1C24;stroke-width:0.6806;stroke-miterlimit:10;}
	.st3{fill:#FFFFFF;}
	.st4{fill:none;stroke:#FFFFFF;stroke-width:0.6806;stroke-miterlimit:10;}
	.st5{fill:none;stroke:#FFFFFF;stroke-width:2.7224;stroke-miterlimit:10;}
</style>
<path class="st0" d="M850.4,425.2c0,234.8-190.4,425.2-425.2,425.2S0,660,0,425.2S190.4,0,425.2,0S850.4,190.4,850.4,425.2z"/>
<sodipodi:namedview  bordercolor="#666666" borderopacity="1.0" fit-margin-bottom="0" fit-margin-left="0" fit-margin-right="0" fit-margin-top="0" id="base" inkscape:current-layer="layer1" inkscape:cx="247.9485" inkscape:cy="441.95185" inkscape:document-units="px" inkscape:pageopacity="0.0" inkscape:pageshadow="2" inkscape:window-height="705" inkscape:window-maximized="1" inkscape:window-width="1366" inkscape:window-x="-8" inkscape:window-y="-8" inkscape:zoom="0.35" pagecolor="#ffffff" showgrid="false">
	</sodipodi:namedview>
<g id="layer1" transform="translate(517.17175,-677.066)" inkscape:groupmode="layer" inkscape:label="Ebene 1">
	<g id="g3369" transform="translate(-549.17176,642.10877)">
		<path id="path2440" inkscape:connector-curvature="0" class="st1" d="M217.7,595.3c20.4,44.7,93.6,54.9,200,22
			c51.4-15.9,161.6-57.7,225.2-102.4c81.2-57,117.5-87.8,127.3-100.8l41.9,52.7l28.9-168.3l-172.7-14.9l41.2,53.5
			c0,0-55.9,56.2-146.8,96.1c-69,30.2-179.3,66.6-209.8,51.2c-51.3-26,20.7-95.3,20.7-95.3c-85.9,19.6-148.9,59.8-163,139.9
			C207.2,548.7,208.2,574.4,217.7,595.3"/>
		<path id="path2442" inkscape:connector-curvature="0" class="st2" d="M217.7,595.3c20.4,44.7,93.6,54.9,200,22
			c51.4-15.9,161.6-57.7,225.2-102.4c81.2-57,117.5-87.8,127.3-100.8l41.9,52.7l28.9-168.3l-172.7-14.9l41.2,53.5
			c0,0-55.9,56.2-146.8,96.1c-69,30.2-179.3,66.6-209.8,51.2c-51.3-26,20.7-95.3,20.7-95.3c-85.9,19.6-148.9,59.8-163,139.9
			C207.2,548.7,208.2,574.4,217.7,595.3L217.7,595.3z"/>
		<path id="path2446" inkscape:connector-curvature="0" class="st3" d="M549.8,359.6v17.9H543v17.2h6.7v41.7h20.8v-41.8h12.1v-17.3
			h-12.1v-17.8L549.8,359.6"/>
		<path id="path2448" inkscape:connector-curvature="0" class="st3" d="M230.7,359.7v17.9h-6.8v17.2h6.7v41.7h20.8v-41.8h12.1v-17.3
			h-12.1v-17.8L230.7,359.7"/>
		<path id="path2450" inkscape:connector-curvature="0" class="st3" d="M492.1,553.1v9.8h-3.7v9.5h3.7v22.9h11.5v-23h6.6v-9.5h-6.6
			V553L492.1,553.1"/>
		<path id="path2452" inkscape:connector-curvature="0" class="st3" d="M365.5,507.4v2.5h-2.6v6.6h2.6v16h8v-16.1l5.6-0.1V510
			l-5.6,0l-0.1-4.9c0-2.2,1.5-2.8,2.4-2.9c2.4-0.2,3.3,1.2,3.3,1.2l0-6.8C369.4,494.9,365.3,500.4,365.5,507.4"/>
		<path id="path2454" inkscape:connector-curvature="0" class="st4" d="M365.5,507.4v2.5h-2.6v6.6h2.6v16h8v-16.1l5.6-0.1V510
			l-5.6,0l-0.1-4.9c0-2.2,1.5-2.8,2.4-2.9c2.4-0.2,3.3,1.2,3.3,1.2l0-6.8C369.4,494.9,365.3,500.4,365.5,507.4L365.5,507.4z"/>
		<path id="path2456" inkscape:connector-curvature="0" class="st3" d="M589.8,377.5l-0.1,58.8h20.7v-58.9L589.8,377.5"/>
		<path id="path2458" inkscape:connector-curvature="0" class="st3" d="M610.4,354.5c0,5.8-4.7,10.5-10.5,10.5
			c-5.8,0-10.5-4.7-10.5-10.5c0-5.8,4.7-10.5,10.5-10.5C605.8,344,610.4,348.7,610.4,354.5"/>
		<path id="path2460" inkscape:connector-curvature="0" class="st5" d="M610.4,354.5c0,5.8-4.7,10.5-10.5,10.5
			c-5.8,0-10.5-4.7-10.5-10.5c0-5.8,4.7-10.5,10.5-10.5C605.8,344,610.4,348.7,610.4,354.5z"/>
		<path id="path2462" inkscape:connector-curvature="0" class="st3" d="M615.9,377.4l30.8,58.9h13.7l30.6-59.2h-23.6l-13.7,30
			l-14.3-29.9L615.9,377.4"/>
		<path id="path2464" inkscape:connector-curvature="0" class="st3" d="M194,340.8h21.1v95.4H194V340.8z"/>
		<path id="path2466" inkscape:connector-curvature="0" class="st3" d="M618.5,542.8h11.6v52.5h-11.6V542.8z"/>
		<path id="path2468" inkscape:connector-curvature="0" class="st3" d="M132.7,404l9.4-27.7l9.1,27.7C151.1,404,132.7,404,132.7,404
			z M154.4,349.5l-24.6,0.2l-33.5,86.6h24.2l6-14.9h30.9l5.8,15h24.3L154.4,349.5"/>
		<path id="path2470" inkscape:connector-curvature="0" class="st3" d="M340.8,377.3l0.1,58.9h20.9c0,0-0.2-11.2-0.1-22.3
			c-0.7-27.9,23.5-17.3,23.5-17.3v-20.2c-19.4-1.1-23.5,10.9-23.5,10.9v-10H340.8"/>
		<path id="path2472" inkscape:connector-curvature="0" class="st3" d="M411,510.1l0,22.5h8c0,0-0.1-4.3,0-8.5
			c-0.3-10.7,9-6.6,9-6.6v-7.7c-7.4-0.4-9,4.2-9,4.2v-3.8L411,510.1"/>
		<path id="path2474" inkscape:connector-curvature="0" class="st3" d="M713.5,398.2c0,0,1.6-9.3,12.2-9.3s11.9,9.3,11.9,9.3H713.5z
			 M725.2,375.3c-34.3,0-33.1,31.1-33.1,31.1c-0.1,6.9,1.8,32.2,33.5,32.1c27.9-0.1,30.8-20.1,30.8-20.1H736c0,0-2.4,5.5-10.6,5.3
			c-8.3-0.2-12.4-4.5-12.4-13.3l44.2-0.1C757.2,410.2,759.5,375.3,725.2,375.3"/>
		<path id="path2476" inkscape:connector-curvature="0" class="st3" d="M420.7,574.2c0,0,0.9-5.1,6.7-5.1c5.9,0,6.5,5.1,6.5,5.1
			H420.7z M427.2,561.6c-18.9,0-18.2,17.1-18.2,17.1c-0.1,3.8,1,17.7,18.4,17.6c15.3,0,17-11.1,17-11.1h-11.2c0,0-1.3,3-5.8,2.9
			c-4.5-0.1-6.8-2.6-6.8-7.5l24.2,0.1C444.8,580.8,446.1,561.6,427.2,561.6"/>
		<path id="path2478" inkscape:connector-curvature="0" class="st3" d="M287.3,398.2c0,0,1.6-9.3,12.2-9.3s11.9,9.3,11.9,9.3H287.3z
			 M299.1,375.3c-34.3,0-33.1,31.1-33.1,31.1c-0.1,6.9,1.8,32.2,33.5,32.1c27.9-0.1,30.8-20.1,30.8-20.1h-20.4c0,0-2.4,5.5-10.6,5.3
			c-8.3-0.2-12.4-4.5-12.4-13.3l44.2-0.1C331.1,410.2,333.4,375.3,299.1,375.3"/>
		<path id="path2480" inkscape:connector-curvature="0" class="st3" d="M393.2,377.4v58.9H414v-32.5c0,0,0.3-12.2,10.7-12
			c10.4,0.2,9.7,12,9.7,12v32.5l21-0.1c0,0,0-27.9,0-32.2c0-4.3,1.6-28.6-20.9-28.6c-15.5,0-20.4,9.8-20.4,9.8l-0.1-7.8L393.2,377.4
			"/>
		<path id="path2482" inkscape:connector-curvature="0" class="st3" d="M680.6,562.9v32.4H692v-17.8c0,0,0.1-6.7,5.9-6.6
			c5.7,0.1,5.3,6.6,5.3,6.6v17.9l11.5,0c0,0,0-15.3,0-17.7c0-2.4,0.9-15.7-11.5-15.7c-8.6,0-11.2,5.4-11.2,5.4l-0.1-4.3L680.6,562.9
			"/>
		<path id="path2484" inkscape:connector-curvature="0" class="st3" d="M577.1,543.3v52h11.4v-17.8c0,0,0.1-6.7,5.9-6.6
			c5.7,0.1,5.3,6.6,5.3,6.6v17.9l11.5,0c0,0,0-15.3,0-17.7c0-2.4,0.9-15.7-11.5-15.7c-8.6,0-11.2,5.4-11.2,5.4l0-23.9H577.1"/>
		<path id="path2486" inkscape:connector-curvature="0" class="st3" d="M500.1,420.9c-7.7,0-13.9-6.2-13.9-13.9s6.2-13.9,13.9-13.9
			c7.7,0,13.9,6.2,13.9,13.9S507.8,420.9,500.1,420.9z M513,377.2v6.2c0,0-5.3-7.9-18-7.9c-15.7-0.2-30,11.3-30,31.8
			c0.9,25.2,21.1,31.2,29.6,31.2c12.8,0.1,18.5-8.6,18.5-8.6v6.6h21.1v-59.2H513"/>
		<path id="path2488" inkscape:connector-curvature="0" class="st3" d="M654.4,586.8c-4.2,0-7.6-3.4-7.6-7.6c0-4.2,3.4-7.6,7.6-7.6
			c4.2,0,7.6,3.4,7.6,7.6C662.1,583.4,658.6,586.8,654.4,586.8z M661.5,562.8v3.4c0,0-2.9-4.4-9.9-4.4c-8.6-0.1-16.5,6.2-16.5,17.5
			c0.5,13.9,11.6,17.2,16.3,17.1c7,0,10.2-4.7,10.2-4.7v3.7h11.6v-32.6H661.5"/>
		<path id="path2490" inkscape:connector-curvature="0" class="st3" d="M739.3,586.8c-4.2,0-7.6-3.4-7.6-7.6c0-4.2,3.4-7.6,7.6-7.6
			c4.2,0,7.6,3.4,7.6,7.6C747,583.3,743.5,586.8,739.3,586.8z M746.4,543.1v23c0,0-2.9-4.4-9.9-4.4c-8.6-0.1-16.5,6.2-16.5,17.5
			c0.5,13.9,11.6,17.2,16.3,17.1c7,0.1,10.2-4.7,10.2-4.7v3.7H758v-52.2L746.4,543.1"/>
		<path id="path2492" inkscape:connector-curvature="0" class="st3" d="M376.9,584.9v-26.2c0,0,16.1-1.8,16.3,13.4
			C393.4,587,376.9,584.9,376.9,584.9z M380.5,548.3c-0.5,0-15.6,0-15.6,0v47c0,0,7.9,0,15.7,0c9.1-0.1,25.5-3.7,25.3-23.5
			C405.7,554.7,391.1,548.2,380.5,548.3"/>
		<path id="path2494" inkscape:connector-curvature="0" class="st3" d="M450.1,562.9H461l0.1,18.6c0,6.8,11.6,6.8,11.6,0v-18.7
			l11.1-0.1v20.1c0,0,1.7,13.1-16.7,13.1c-18.4,0-17.1-13.2-17.1-13.2V562.9"/>
		<path id="path2496" inkscape:connector-curvature="0" class="st3" d="M381.7,510.2h7.7l0.1,13c0,4.7,8.2,4.8,8.2,0v-13.1l7.8,0
			v14.1c0,0,1.2,9.2-11.7,9.2c-12.9,0-11.9-9.3-11.9-9.3L381.7,510.2"/>
		<path id="path2498" inkscape:connector-curvature="0" class="st3" d="M535.6,570.8c-1.3-1.3-9.7-3-9.9,0.8
			c-0.3,5.1,15.3,0.2,14.5,12.8c-0.5,9-7.5,11.6-14.4,11.6c-4.5,0-10.7-1.6-13.6-3.7l4-7.9c2,1.7,12.1,5.8,12.9,1
			c0.9-4.9-15.1-0.7-14.5-12.4c0.8-16.1,20.7-11.5,24.5-9.1L535.6,570.8"/>
		<path id="path2500" inkscape:connector-curvature="0" class="st3" d="M569.8,563.7c-5.9-3.7-25.1-2.4-25.3,14.8
			c-0.3,19.5,21.3,18.6,25.4,15.6l-0.1-9.5c0,0-5.4,3.9-10.4,1c-5.4-3.1-3.7-11.1-0.3-13.2c6.2-3.9,10.7,1,10.7,1L569.8,563.7"/>
		<path id="path2502" inkscape:connector-curvature="0" class="st3" d="M391.9,501.8c0,2.2-1.8,4-4,4s-4-1.8-4-4s1.8-4,4-4
			S391.9,499.6,391.9,501.8"/>
		<path id="path2504" inkscape:connector-curvature="0" class="st4" d="M391.9,501.8c0,2.2-1.8,4-4,4s-4-1.8-4-4s1.8-4,4-4
			S391.9,499.6,391.9,501.8z"/>
		<path id="path2506" inkscape:connector-curvature="0" class="st3" d="M403,501.8c0,2.2-1.8,4-4,4s-4-1.8-4-4s1.8-4,4-4
			S403,499.6,403,501.8"/>
		<path id="path2508" inkscape:connector-curvature="0" class="st4" d="M403,501.8c0,2.2-1.8,4-4,4s-4-1.8-4-4s1.8-4,4-4
			S403,499.6,403,501.8z"/>
	</g>
</g>
</svg>
