<?xml version="1.0" encoding="utf-8"?><svg version="1.1" id="cdu-logo"  xmlns="http://www.w3.org/2000/svg" xmlns:xlink="http://www.w3.org/1999/xlink" width="100%" height="100%" x="0px" y="0px" viewBox="0 0 850.4 850.4"
	 style="enable-background:new 0 0 850.4 850.4;" xml:space="preserve">
<path d="M850.4,425.2c0,234.8-190.4,425.2-425.2,425.2S0,660,0,425.2S190.4,0,425.2,0S850.4,190.4,850.4,425.2z"/>
<g>
	<g id="g13780">
		<g id="g7759" transform="matrix(0.756768,0,0,0.756768,113.894,51.2443)">
			<path id="path7774" class="st0" d="M399.4,672.8c-24.2-1.7-39.6-7.2-51-18.6c-4.7-4.6-6.6-7.2-9-12.1
				c-8.1-16.4-7.2-29.6,5.4-82.9c10.3-43.6,12.6-53,12.9-53.3c0.2-0.2,12.8-0.2,28.1-0.1l27.7,0.2l-3.8,17.2
				c-2.1,9.4-6.1,27.3-9,39.8c-2.8,12.4-6,27.1-7.1,32.5c-2,10-3.1,24.5-2.2,28.1c0.7,2.9,5.9,8.1,9.8,9.7c1.9,0.8,6.2,2,9.6,2.7
				c12.5,2.5,23,0.1,27.8-6.4c4.9-6.6,13.7-39.6,32.3-120.8l0.7-3.1H498h26.5l-2.8,13.6c-6.4,30.4-17.7,79.9-20.8,90.7
				c-6.2,21.5-11.2,31.9-19.5,40.8c-13.8,14.8-32.5,21.4-63.3,22.4C412.7,673.2,404.3,673.1,399.4,672.8z M214.8,672
				c-20-1.6-45.9-5.5-49.3-7.3c-1.2-0.6-1.2-1-0.4-4.2c4.9-17.9,10.6-37.7,11-38c0.2-0.2,1.2,0,2,0.6c14.5,9.1,25.4,12.2,45.9,12.9
				c12.9,0.5,18.7-0.2,24.3-2.6c6.9-3,11.3-9.5,10.2-15.1c-1-5.4-7.5-9.8-28.4-19.1c-18.2-8.1-25.2-12.4-33-20.3
				c-10.6-10.7-13.6-23.2-9-38.4c8-26.2,37.3-41.6,79.1-41.6c17.7,0,31.9,2.7,55,10.3l11.2,3.7l-0.5,2.3c-1.2,6-9.5,34.8-10,34.8
				c-0.3,0-3-1.6-6-3.6c-7.5-4.9-16.4-8.5-28.5-11.6c-8.5-2.1-11.1-2.5-15.3-2.2c-18.8,1.4-27.3,12.6-16.9,22.3
				c4,3.7,10.5,7.3,21.9,12.2c22.3,9.6,32.8,16.6,40.4,26.8c9.1,12.4,8.6,30.7-1.2,45.4c-10.9,16.4-31.4,27.2-59.4,31.5
				C248.9,672.4,225.7,672.9,214.8,672z M83.8,670.6c-43.7-5.9-69.7-32.3-71.3-72.3c-1.9-46.5,27.8-84.8,74.8-96.7
				c11.3-2.9,22.7-4.1,37.1-4.1c21.3,0.1,37.8,3.2,51.9,9.9l6.6,3.1l-4.9,19.1c-2.7,10.5-5.1,19.3-5.3,19.5
				c-0.2,0.2-1.9-0.6-3.7-1.9c-15.8-10.9-39.7-14-57.6-7.5c-8.4,3-12.8,5.9-19.8,12.9c-5.7,5.7-7.1,7.7-10.4,14.3
				c-5.2,10.6-7,18.4-6.5,28.5c0.7,13,4.6,21.3,13.7,28.6c15.3,12.4,42.4,12.3,67.1-0.1c3.3-1.7,6.1-2.9,6.2-2.8
				c0.8,0.9-10.1,41.3-11.5,42.7c-1.4,1.4-10.4,4-18.7,5.5C122.5,670.9,92.2,671.7,83.8,670.6z M708.9,667.8
				c-1.3-1.9-8-12.3-14.9-23.2c-6.9-10.8-18.4-28.8-25.6-39.9l-13-20.2l8.1-12.6c4.5-6.9,11.6-18,15.8-24.7
				c4.2-6.6,10.5-16.5,14-21.9c3.5-5.4,8.9-13.9,12-18.8c3.1-4.9,5.9-8.9,6.2-8.9s3.7,5.2,7.7,11.5c4,6.3,10.4,16.4,14.2,22.4
				c26.4,41.8,33,52.2,33,52.6c0,0.3-54,85.9-54.7,86.7C711.4,671,710.2,669.7,708.9,667.8z"/>
			<path id="path7772" class="st1" d="M221.4,672.3c-21-1.3-48.9-5.1-55.4-7.5l-1.8-0.7l1.8-5.7c1-3.1,3.6-12.4,5.9-20.7
				c2.3-8.2,4.2-15.1,4.3-15.2c0.1-0.1,2.1,0.9,4.4,2.3c10.8,6.5,17.7,8.9,32,11.1c5.4,0.8,6,1,3.3,1.1c-1.8,0.1-4.1,0.1-5.1,0
				c-1-0.1-1.6,0.1-1.4,0.3c1,1,9.6,1.9,19.3,1.9c15.2,0.1,23-2.1,28.5-8.2c1.6-1.8,1.7-2.1,0.4-0.9c-2.3,1.9-5.6,3.6-8.4,4.2
				c-2.1,0.4-2.1,0.4,0.5-1c6.5-3.5,10-9.4,9-15.1c-1.1-5.8-6.5-9.3-33.7-21.7c-24.1-10.9-36.1-22.8-38.2-37.9
				c-1.7-12.6,3.4-27.2,12.9-36.5c4.1-4.1,4-2.7-0.3,2.8c-1.2,1.6-2.8,3.9-3.5,5.1l-1.3,2.2l1.7-2.2c8.8-11.3,19-18.2,33.5-22.8
				c10.3-3.3,19.3-4.6,33.6-5.1c12.3-0.4,14.5-0.2,31,2.3c1.2,0.2-0.3-0.3-3.3-1.1c-3-0.8-7.4-1.6-9.7-1.9s-4.4-0.8-4.7-1.2
				c-0.9-1.5,16.7,1.1,29,4.3c10.3,2.7,27.7,8.4,27.7,9.1c0,0.3-1.8,7.3-4.1,15.4c-2.2,8.1-4.4,16.1-4.9,17.7
				c-0.4,1.6-0.9,3.1-1,3.2c-0.1,0.2-2.5-1.2-5.3-3.1c-8.3-5.5-17.6-9.3-31.4-12.7c-6.3-1.5-8.9-1.8-13.9-1.5
				c-13,0.8-21.2,6.3-21.2,14.3c0,6.3,7.2,11.9,25.9,20.2c20.1,8.9,28.9,14.1,36.5,21.8c8,8.2,11,16.2,10.4,28.1
				c-1,18.3-12.3,33.3-33,43.7C274.1,669.6,247.8,673.9,221.4,672.3z M296.9,579.1c-0.2-0.2-1.1-0.7-2.1-1.1
				c-1.7-0.8-1.7-0.8-0.4,0.3C295.5,579.1,297.9,580,296.9,579.1z M287.8,574.2c-0.2-0.4-0.8-0.7-1.3-0.7c-0.5,0-0.4,0.3,0.2,0.7
				C288.1,575.1,288.4,575.1,287.8,574.2z M281.3,571.3c-2.4-1.1-4.7-2.1-5.1-2.1c-0.9,0,7.8,4.2,8.8,4.2
				C285.3,573.4,283.7,572.4,281.3,571.3z M393.7,672.3c-24.6-3-39.9-10.2-49.7-23.1c-6.9-9.2-9.3-17-9.3-30.4
				c0.1-12.7,2.4-25.5,11.6-64.3c4.2-17.8,8.5-36.1,9.6-40.6l1.9-8.2h27.6c17.5,0,27.6,0.3,27.6,0.7c0,0.9-4.5,21.5-12.7,57.9
				c-7.2,32.1-9.3,43.6-9.4,52.3c-0.1,5.6,0.1,6.7,1.8,9.6c3.9,6.6,12.2,10.1,25.6,10.7c7.1,0.3,9.2,0.2,12-0.9
				c4.2-1.6,8.6-5.5,10.6-9.3c3.2-6.4,13.2-44.1,23.9-90.7c3.2-14.1,6.2-26.5,6.5-27.7l0.6-2.2l26-0.2c22.7-0.2,26-0.1,26,0.9
				c0,3.4-18.4,86-22.3,99.9c-3.4,12.4-7.2,23-10.3,29.3c-10.4,20.8-27.5,31.8-55.7,35.8C428.6,672.7,400.1,673.1,393.7,672.3z
				 M430.2,638.5c1.3-0.6,1.3-0.6-0.4-0.7c-1,0-2.3,0.3-2.9,0.7c-0.9,0.6-0.8,0.7,0.4,0.7C428.1,639.1,429.4,638.8,430.2,638.5z
				 M358.7,512.4c-0.2-0.2-0.4,0.2-0.4,1c0,0.9,0.2,1,0.4,0.4C359,513.3,359,512.6,358.7,512.4z M86.7,670.9
				c-17.5-2.2-30.9-6.7-43-14.6C19.1,640.2,7.9,610.4,14.1,577c2-10.8,6.5-22.8,9.9-26.4l1.5-1.5l-1.2,2.9c-3.6,8.5-3,8.4,1.4-0.2
				c8.2-16.3,23.1-30.9,40.5-39.6c6.5-3.2,20.7-7.9,29.2-9.5c10.4-2,25.3-3.1,36.5-2.6c5.4,0.2,10,0.6,10.2,0.8s0.9,0.4,1.6,0.4
				c0.9,0,0.8-0.2-0.3-0.7c-2.2-1,4.7-0.1,13.1,1.6c4,0.8,8.1,1.6,9,1.8c4.8,0.9,16.9,6.3,16.9,7.6c0,0.9-9.5,37.4-9.8,37.7
				c-0.1,0.1-2.4-1.2-5-3c-9.4-6.3-22.4-9.9-35.6-9.9c-16.9,0-29.6,5-40.4,15.8c-16.5,16.5-22.1,43.3-12.7,61.2
				c4.7,8.9,14.7,16.3,25.7,19l4.4,1.1l-3.7,0.1c-2,0-4.8-0.3-6.2-0.7c-4.9-1.4-3-0.1,2.3,1.6c4.6,1.5,6.9,1.7,16.3,1.7
				c14.1,0,22.6-1.8,34.4-7.2c4-1.8,5.6-3,6.9-5.2c1.2-1.9,1.8-2.5,2-1.7c0.3,1.4-7,30.2-9.4,37.5l-1.7,5.1l-5.5,1.7
				c-10.9,3.4-21,4.7-38.7,4.9C96.7,671.1,88.1,671,86.7,670.9z M708.5,666.8c-1.4-2.1-8.6-13.2-15.9-24.6
				c-7.3-11.4-15.1-23.6-17.3-27c-2.2-3.4-7.5-11.6-11.7-18.2l-7.7-12l1.5-2.6c0.8-1.4,5.6-9,10.6-16.8c10.2-16,38.4-60,41.4-64.8
				c1.1-1.7,2.1-3.1,2.3-3.1c0.2,0,1.4,1.7,2.7,3.8c1.3,2.1,13.5,21.6,27.2,43.2l24.9,39.4l-1.6,2.6c-2.4,4-19.9,31.7-24.7,39.1
				c-8.4,13-27.2,43-27.5,43.9C711.9,671.3,711.1,670.7,708.5,666.8z M109.9,633.6c0.5-0.2,1.5-0.2,2.2,0c0.7,0.2,0.3,0.3-0.9,0.4
				C110,634,109.4,633.8,109.9,633.6z"/>
			<path id="path7770" class="st2" d="M222.9,672.3c-23-1.2-58-6.3-58-8.4c0-0.4,1.8-7,4-14.7c2.2-7.7,4.7-16.8,5.6-20.2
				c0.9-3.4,1.7-6.3,1.9-6.5c0.1-0.2,1.1,0.3,2.2,1.1c3.9,2.5,10.8,6.3,14.8,8c2.3,1,3.4,1.8,2.6,1.8c-0.8,0,0.3,0.8,2.6,1.8
				c6.4,2.7,17.1,4.3,30.3,4.4c10.1,0.1,12.4-0.2,16.8-1.6c6-1.9,10.5-4.7,13.1-8.2c2.1-2.9,2.4-4.4,0.6-2.8
				c-2.7,2.3-3.2,2.1-1.7-0.6c0.8-1.5,1.5-4,1.5-5.6c0-6.3-3.9-9.9-18.2-16.8c-5.8-2.8-15.5-7.5-21.6-10.4
				c-16.5-8.1-25.2-15.7-30.2-26.5c-3.6-7.7-3-21.3,1.3-30.3l1.5-3l-0.4,2.9c-0.2,1.6-0.5,3.7-0.7,4.7c-0.2,1,0.1,0.7,0.6-0.8
				c7.9-19.9,25.1-31.8,53.4-36.9c5.3-1,11.2-1.3,21.9-1.3c15.8,0,20.7,0.6,37.2,4.7c9.3,2.3,12,2.5,4.8,0.3
				c-2.4-0.7-4.8-1.8-5.3-2.4c-0.8-0.9-0.7-1,0.6-0.6c0.8,0.2,4.6,1.3,8.4,2.3c9.4,2.6,20.3,6.2,20.8,6.9c0.5,0.7-8.8,34.8-9.8,36
				c-0.2,0.3-2.1-0.6-4.1-2.1c-7.8-5.6-19.5-10.4-32.7-13.4c-18.3-4.2-34.8,1.8-34.8,12.6c0,7.2,6.4,12.2,29.1,22.4
				c5.4,2.4,10.1,4.8,10.4,5.3c0.3,0.5,0.6,0.7,0.6,0.4c0-0.9,7,2.9,13.2,7c13.4,9,19.7,19.6,19.7,32.9
				c-0.1,29.3-27.9,51.5-70.8,56.5C246.5,672.1,230,672.7,222.9,672.3z M303.5,583c-1-0.8-4.1-2.8-6.9-4.5c-2.8-1.7-5.9-3.5-6.9-4.2
				c-1-0.6-2.2-1.2-2.6-1.3c-0.4-0.1-3.4-1.3-6.6-2.7c-3.2-1.4-6.8-2.7-8-3c-2.4-0.5-1.1,0.2,14.2,7.4c5,2.4,11.1,5.5,13.5,7
				C305.1,584.8,306.3,585.2,303.5,583z M394.8,672.3c-13-1.3-26.9-5-34.3-9.1c-12.6-7.1-21.6-18.4-24.5-30.7
				c-2.1-8.8-1.4-24,1.9-40.7c1.7-8.5,16.7-72.2,19.7-83.4l0.7-2.7h27.4h27.4l-0.5,2.4c-0.3,1.3-3.9,17.8-8.1,36.7
				c-12.3,55.3-14.9,69.8-13.8,76.3c1.7,9.4,9,14,25.9,16.3c6.1,0.9,6.7,1.1,5.1,1.8c-1.7,0.7-1.5,0.8,1.7,0.8
				c7.9,0.1,16.5-5,19.8-11.8c3.6-7.6,11.9-38.2,21.7-80.4c2.8-12.1,6-25.7,7.1-30.3l2-8.4l23.3-0.4l23.3-0.4l-23.7,0l-23.7,0
				l-1.6,6.9c-0.9,3.8-3.8,16.3-6.4,27.7c-8.5,36.6-18.8,75.5-22.1,83.2c-1.6,3.7-5.3,8-6.9,8c-0.7,0-0.2-1,1.5-2.7
				c1.4-1.5,3.2-4.2,4-6c3.5-7.9,12.3-41.6,22.1-84.3c3.1-13.2,6.2-26.6,7.1-29.7l1.5-5.7h25.8c20.2,0,25.8,0.2,25.8,0.9
				c0,3.3-18.5,85.7-22.7,100.9c-5.3,19.3-9.8,29.9-16.4,38.8c-10.6,14.2-26.7,22.3-50.5,25.4C426.9,672.7,402.4,673.1,394.8,672.3z
				 M384.9,508.5l24.8-0.4l-25.4-0.2l-25.4-0.2l-0.4,1.6c-0.2,0.9-1.2,5.3-2.3,9.7c-2.4,10.4-4.7,21.5-4.6,22.5
				c0,0.5,1.9-6.7,4.2-16l4.2-16.8L384.9,508.5z M88.5,670.9c-19.3-2.2-32.7-6.6-44.5-14.4c-18.4-12.2-28.5-29.8-31.2-53.8
				c-1.3-12.4,1.1-30.5,5.3-39.2c2-4.1,2.4-3.6,1,1c-1.8,6-1.2,5.4,1.4-1.2c11.7-30.3,33.9-49.9,66.4-58.4
				c11.6-3.1,22.6-4.3,37.6-4.3c17.7,0,28.4,1.6,43.6,6.7c6.4,2.1,12.3,3.8,13,3.7c0.7-0.1,1.3,0,1.3,0.3c0,0.6-9.6,37.8-9.8,38
				c-0.1,0.1-1.9-1-4.1-2.5c-5.2-3.5-13.1-7.1-19.4-8.7c-7.2-1.9-27.1-1.9-33.9-0.1c-23.8,6.6-40.9,29.7-40.9,55.3
				c0,12,3.3,20.8,10.6,28.2c2.7,2.8,6.4,5.5,9.5,7.1c5.5,2.8,5.5,3.3-0.1,1.6c-5.2-1.6-4.9-0.8,0.5,1.8c7.7,3.6,13.9,4.6,26.1,4.1
				c11.9-0.4,16.5-1.4,27.4-5.7c6.3-2.4,8-3.5,9.9-5.9c1.3-1.6,2.4-2.8,2.5-2.7c0.6,0.6-3.6,17.3-9.6,38.3l-1.1,3.8l-5.7,1.8
				c-11.7,3.8-25.9,5.6-42.7,5.5C95.7,671.2,89.7,671,88.5,670.9z M703.9,659.5c-3.9-6.2-9-14-11.2-17.4c-2.2-3.4-6.2-9.7-8.9-13.9
				c-2.7-4.2-9.7-15.2-15.6-24.4c-5.9-9.2-11.1-17.4-11.5-18.1c-0.6-1.1,0.7-3.6,6.9-13.2c11.4-17.7,40-62.5,45-70.4
				c1.3-2.1,2.7-3.8,3-3.8c0.3,0,3.9,5.3,8,11.9c17.6,28,27.4,43.5,38.6,61.1c4.2,6.6,7.6,12.4,7.6,12.8c0,0.7-10.8,18-24.3,39.1
				c-2.7,4.2-10.3,16.2-16.8,26.6c-6.5,10.4-12.3,19.4-12.8,20C711.2,670.5,709.7,668.6,703.9,659.5z M666.4,573.1
				c0.7-1.5,0.7-1.5-0.5,0c-0.7,0.8-1.5,2.1-1.9,2.9c-0.7,1.5-0.7,1.5,0.5,0C665.2,575.3,666,573.9,666.4,573.1z M671.5,565.1
				c0.7-1.5,0.7-1.5-0.5,0c-0.7,0.8-1.5,2.1-1.9,2.9c-0.7,1.5-0.7,1.5,0.5,0C670.3,567.2,671.1,565.9,671.5,565.1z M683.1,547.2
				c0.4-0.8,0.6-1.5,0.4-1.5s-0.7,0.7-1.1,1.5c-0.4,0.8-0.6,1.5-0.4,1.5S682.7,548,683.1,547.2z M686.9,541c0.7-1.5,0.7-1.5-0.5,0
				c-0.7,0.8-1.5,2.1-1.9,2.9c-0.7,1.5-0.7,1.5,0.5,0C685.6,543.1,686.5,541.8,686.9,541z M691.9,533.2c1.3-2.1,1.8-3.3,1.3-2.7
				c-1.3,1.4-4.4,6.6-4,6.6C689.4,537,690.6,535.3,691.9,533.2z M699.5,521.4l1.2-2.2l-1.4,1.8c-0.8,1-2,2.8-2.7,4l-1.2,2.2l1.4-1.8
				C697.6,524.4,698.9,522.6,699.5,521.4z M703.7,514.7c0.7-1.5,0.7-1.5-0.5,0c-0.7,0.8-1.5,2.1-1.9,2.9c-0.7,1.5-0.7,1.5,0.5,0
				C702.4,516.9,703.3,515.5,703.7,514.7z M709.4,505.9c0.9-1.4,1.5-2.7,1.3-2.9c-0.2-0.2-1,1-1.9,2.6
				C706.8,509.2,707.3,509.5,709.4,505.9z"/>
			<path id="path7768" class="st3" d="M396.6,672.3c-23.7-2.4-36.8-7.5-47.9-18.5c-7.2-7.2-10.7-13.3-12.8-22.4
				c-2.8-12.5,0.3-36.6,8.3-66.5c1.4-5.3,2.3-7.2,2.3-5.2c0,1.4-1.7,10.3-3.6,18.8c-0.8,3.8-1.4,7-1.1,7.2c0.2,0.2,0.4,0.2,0.4,0
				c0-0.6,10.2-43.9,14.3-60.7l4.1-16.6h24.6c23.7,0,24.7-0.1,26-1.5c0.7-0.8,1.4-1.4,1.6-1.2c0.2,0.2-2.6,13.3-13.1,60.4
				c-8.6,38.4-10.5,51.3-8.5,57.3c2,6.1,8.8,10.8,18.6,12.9c5.2,1.1,5.2,1.1,4.1,2.4c-0.7,0.9-0.2,1.1,3.7,1.5
				c8.6,0.9,16.9-1.6,22.1-6.8c3.6-3.6,5.6-8.2,9.6-22.3c1.8-6.5,3.9-13.9,4.7-16.5c1.5-5.1,8.8-35.3,15.7-65.3
				c2.3-10,4.5-18.8,4.9-19.5c0.6-1.2,2.5-1.3,23.5-1.3c22,0,22.9-0.1,24.2-1.5c0.7-0.8,1.5-1.3,1.6-1.2c0.4,0.4-2.8,15.4-11.1,52.7
				c-13,58-16.9,71.1-25.6,84.5c-9.7,15-24.8,23.8-48.1,28C432.6,672.2,403.7,673.1,396.6,672.3z M213.7,671.6
				c-24-2.4-42.4-5-47-6.8l-2.1-0.8l2.1-1.2c1.9-1.1,2.5-2.7,6.8-18c4-14.4,4.6-17.1,3.9-19c-1.2-3.4-1-3.5,2.3-1.2
				c1.7,1.2,4.5,2.8,6.2,3.7c3.3,1.7,4,2.4,1.6,1.8c-0.8-0.2-1.5-0.2-1.5,0c0,1.3,4,3.7,8.8,5.2c10.2,3.2,18.2,4.3,32.8,4.3
				c12,0.1,14.1-0.1,18.7-1.6c9.5-3,15-8.6,15.3-15.7c0.1-2.1,0-2.9-0.2-1.9c-0.2,1.1-0.8,2.3-1.4,2.8c-0.9,0.7-1.1,0.3-1.1-2.6
				c0-6.6-4.8-10.7-21.2-18.2c-5-2.3-12.8-5.9-17.3-8c-22.4-10.5-33.8-24.1-33.8-40.4c0-7.3,2.1-11.6,2.3-4.6l0.1,3.5l1-4.7
				c2-10,5.6-16.8,12.6-24.3c9.9-10.5,25.8-17.5,46.1-20.2c8.1-1.1,28.9-1.1,35.4-0.1c10.5,1.8,22.7,4.7,33.6,8.1
				c11.6,3.6,13.3,3.9,6.8,1.1c-5.1-2.2-3.2-3,2.5-1.1c2.5,0.8,4.9,1.8,5.3,2.1c0.6,0.4-0.3,4.6-2.8,13.7c-2,7.2-4.1,14.9-4.7,17.2
				c-0.6,2.2-1.2,4.5-1.4,5c-0.2,0.7-1.4,0.2-4-1.6c-15.8-11.3-42.1-17.8-55.5-13.7c-9.3,2.9-12.8,7.1-12.5,14.9
				c0.1,2.7,5,7.9,10.2,10.9c7,4,7.4,4.3,4,3.8c-1.6-0.2-3.4-0.7-4.1-1.1c-0.7-0.4-1.3-0.5-1.3-0.3c0,0.7,7.9,4.8,15.7,8.1
				c18.6,8,28.2,13.7,35.9,21.3c5.1,5,5.3,4.8,0.8-0.6c-4.1-4.9-2.2-5,2.3-0.1c9.4,10.3,11.9,23.4,7,37.8
				c-7.6,22.6-31.6,37.7-67.3,42.4C247.3,672,221.5,672.3,213.7,671.6z M86.7,670.5c-37.9-4.3-63.1-23.7-71.6-55.1
				c-2.5-9.3-3-33.9-0.6-33.9c0.4,0,0.5,2.9,0.3,7.5c-0.2,4.1-0.1,9.8,0.2,12.6c0.6,4.7,0.7,4.3,0.8-5.6c0.1-16.4,2.8-29,8.8-41.4
				c13.9-28.8,39-46.2,75.6-52.4c11.5-2,36.6-1.8,48.8,0.4c9.1,1.6,21.2,5.3,26.9,8.2c2.1,1.1,3.1,1.2,4.7,0.7
				c1.5-0.6,1.9-0.5,1.6,0.2c-0.2,0.5-2.4,9-4.9,18.8c-2.5,9.8-4.7,18-4.8,18.2c-0.1,0.2-1.8-0.8-3.7-2c-5.6-3.7-12.5-6.7-19.9-8.6
				c-5.7-1.5-8.7-1.8-16.8-1.8c-11.8,0-18.4,1.4-27.7,6.1c-8.8,4.4-17.9,13.6-22.8,22.8c-5.2,10-7.3,18-7.4,27.7
				c-0.1,11.3,2.1,18,8.4,26.5c2.4,3.3,2.6,3.8,1.2,3c-0.9-0.5-2.5-1.6-3.5-2.4l-1.8-1.6l1.6,2.3c4.2,6.1,13.1,11.7,22.5,14.2
				c4.4,1.2,7.9,1.5,15.2,1.5c11.6,0,20.2-1.6,31.2-6c6.8-2.7,8-3.5,9.7-6c1.1-1.6,2-2.8,2.2-2.6c0.4,0.3-3.5,16.4-6.5,27.1
				c-1.4,4.9-2.9,10.3-3.3,12c-0.8,3.1-0.8,3.1-6.8,4.9C129.8,670.2,103,672.4,86.7,670.5z M17.1,611.7c-0.2-0.2-0.4,0.2-0.4,1
				c0,0.9,0.2,1,0.4,0.4C17.3,612.5,17.3,611.9,17.1,611.7z M16.4,607.6c-0.2-0.5-0.4,0.1-0.3,1.3c0,1.2,0.2,1.6,0.4,0.9
				C16.6,609.1,16.6,608.1,16.4,607.6z M709.7,668.2c-0.9-1.3-6.1-9.4-11.6-18.1c-15.8-24.7-27.7-43.3-35.1-54.8
				c-6.6-10.2-6.8-10.6-5-10.8c1.9-0.2,2.8-1.4,13.5-18.4c2.9-4.6,9.1-14.4,13.8-21.7c4.7-7.3,12.5-19.5,17.3-27
				c5.9-9.2,8.9-14.6,9.1-16.4c0.4-3-2.4-7.2,29.6,43.6c6.3,10,14.2,22.6,17.6,27.9c3.4,5.3,6.3,10.1,6.6,10.7
				c0.5,1.2-1.6,4.8-15.2,26.2c-4.5,7.1-15.1,23.8-23.4,37.1c-8.4,13.3-15.3,24.1-15.3,24.1C711.3,670.6,710.5,669.5,709.7,668.2z"
				/>
			<path id="path7766" class="st4" d="M396.6,672.3c-22.7-2.3-36.3-7.4-47-17.5c-8.5-8-13.4-17.6-14.3-27.9
				c-0.4-5.3,0.6-4.8,1.7,0.8c2.6,13.3,9.6,22.8,22.7,31c12,7.5,26.8,10.4,53,10.4c22.2,0,35.7-2.4,48.9-8.8
				c19.9-9.6,28.2-22.7,37.9-60.1c1.4-5.5,5.7-23.9,9.5-40.9c11.5-51.4,11.3-50.4,13-52.2c0.8-0.9,1.7-1.5,1.8-1.4
				c0.4,0.4-2.8,15.6-11.1,52.6c-13,58-16.9,71.1-25.6,84.5c-9.7,15-24.8,23.8-48.1,28C432.6,672.2,403.7,673.1,396.6,672.3z
				 M213.7,671.6c-24.2-2.4-42.5-5-47.1-6.8l-2.2-0.8l2-1.1c1.8-0.9,2.8-0.9,9.1,0.4c10.4,2.1,28.5,4.2,44.1,5.2
				c32.2,2.1,60-3.4,78.5-15.5c14-9.1,21.4-20.5,23.5-36.1c0.8-5.9,0.6-8.6-1.2-14.3c-1.5-4.8-0.8-6,1.1-1.9
				c6.6,14.5,1.6,34.4-11.8,47.3c-12.8,12.4-30.6,19.9-55,23.1C247.3,672,221.5,672.3,213.7,671.6z M86.7,670.5
				c-21.6-2.4-39.3-9.9-52-21.7c-5.9-5.5-12.6-14.8-14.7-20.4c-1.8-4.7-0.5-3.7,3.1,2.3c7.7,12.9,17.1,21.4,30.3,27.4
				c17.1,7.7,29.5,9.9,53,9.3c16.3-0.4,24.3-1.4,34.7-4.3l5.8-1.7l1.9-5.8c1-3.2,3.2-10.8,4.7-16.8c1.9-7.6,3.5-11.9,4.9-14.1
				c1.2-1.7,2.2-3,2.4-2.9c0.3,0.3-3.6,16.6-6.5,27.1c-1.4,4.9-2.9,10.3-3.3,12c-0.8,3.1-0.8,3.1-6.8,4.9
				C129.8,670.2,103,672.4,86.7,670.5z M709.7,668.2c-0.9-1.3-6.1-9.4-11.6-18.1c-13.1-20.5-26.7-41.7-34.6-54
				c-3.5-5.4-6.6-10.3-6.9-10.8c-0.4-0.6,0.1-0.9,1.3-0.9c1.6,0,2.7,1.3,7.5,8.8c3.1,4.8,7.5,11.7,9.8,15.1
				c2.3,3.5,8.7,13.6,14.4,22.4c5.7,8.8,12.8,20,15.8,24.7c3.1,4.9,5.8,8.4,6.2,8c0.3-0.4,4.1-6.2,8.5-13.1
				c9.8-15.5,17.1-27.1,29.5-46.7c5.3-8.4,10.3-16.4,11.1-17.7l1.4-2.4l-6.2-9.7c-13.9-21.9-40-63.3-42.8-67.9
				c-1.1-1.8-1.6-3.6-1.4-5.3c0.2-2.8-2-6.2,29.4,43.7c6.3,10,14.2,22.6,17.6,27.9c3.4,5.3,6.3,10.1,6.6,10.7
				c0.5,1.2-1.6,4.8-15.2,26.2c-4.5,7.1-15.1,23.8-23.4,37.1c-8.4,13.3-15.3,24.1-15.3,24.1C711.3,670.6,710.5,669.5,709.7,668.2z
				 M396.6,634.7c-0.8-0.4-2.9-2.2-4.6-3.8c-7.8-7.5-7.2-14.8,5.7-72.4c11.3-50.3,10.9-48.7,12.9-50.9c1-1.1,2-1.9,2.1-1.8
				c0.2,0.2-2.7,13.7-13.1,60.3c-11.3,50.5-11.7,57.1-3.6,64.2c1.8,1.6,3.7,2.9,4,2.9c0.4,0,0.3,0.5-0.2,1.1
				C398.8,635.8,398.5,635.8,396.6,634.7z M177.2,623.9c0-0.4,0.1-0.7,0.3-0.7s0.5,0.3,0.8,0.7c0.2,0.4,0.1,0.7-0.3,0.7
				S177.2,624.3,177.2,623.9z M81.5,620c-2.9-2.5-5.5-7.1-8.1-14.6c-2-6-2.3-7.6-2.3-14.4c0-6.1,0.5-9,2-14.1
				c6.6-22,20.6-36.4,41.1-42.3c4.9-1.4,7.3-1.6,17.7-1.6c14.4,0.1,19.8,1.2,31,6.8c4,2,7.4,3.5,7.6,3.3c0.2-0.2,8.1-30.1,8.1-30.7
				c0-0.1,0.3-0.2,0.7-0.2c0.4,0-1.3,7.5-3.6,16.7c-2.6,10-4.1,17.4-3.8,18.4c0.4,1.7,0.4,1.7-1.3,0.5c-11.3-7.9-23.9-11.7-39-11.7
				c-11.4,0-18.2,1.5-27.4,6.1c-8.8,4.4-17.9,13.6-22.8,22.8c-5.2,10-7.3,18-7.4,27.7c-0.1,10.9,2.2,18.2,8.7,27.2
				C84.3,622.1,83.9,622.1,81.5,620z M257.7,615.2c-2.2-3.6-8.6-7.8-19.8-12.9c-20.6-9.5-25.7-12-30.9-15.6
				c-6.7-4.7-13.6-11.7-16-16.5c-1.8-3.6-3.7-9.2-3.2-9.6c0.1-0.1,1.8,2.2,3.6,5.2c8.3,13.4,16.1,19.1,40.5,30.2
				c18.9,8.6,25.6,13.1,27.9,19C260.9,618,259.5,618.2,257.7,615.2z M252.7,555c-1.3-0.6-2.7-2-3.5-3.6c-3.6-7.6,1.5-16,12.4-20.3
				c3.5-1.4,5.7-1.7,13-1.7c7.4,0,9.9,0.3,15.9,2c10.4,2.9,21.4,7.4,26.9,11l4.8,3.1l4.3-15.5c2.8-10.1,4.6-15.6,5.3-15.9
				c0.6-0.2,1.2-0.3,1.3-0.2c0.1,0.1-1.5,6.1-3.5,13.3s-4.1,14.9-4.7,17.2c-0.6,2.2-1.2,4.5-1.4,5c-0.2,0.7-1.4,0.2-4-1.6
				c-7.9-5.7-21.9-11.4-33.8-13.9c-14.4-3-27.6,0-32.6,7.3c-2.1,3.1-2.2,8.5-0.3,11.2c1.7,2.3,2.5,3.7,2.2,3.7
				C255.1,555.9,254,555.5,252.7,555z"/>
			<path id="path7764" class="st5" d="M397,672.3c-13.8-1.1-27.1-4.5-36.1-9.2c-7.2-3.7-16.7-12.8-19.7-18.6
				c-2.4-4.9-1.6-4.9,1.7-0.1c3.5,5.1,11.1,12.1,17.2,15.8c6.2,3.7,13.6,6.2,23.4,8c10.2,1.8,43.5,1.9,53.7,0.1
				c19.4-3.4,31.8-9.4,41.7-20.1c11-11.9,16.1-25.4,26.5-70.2c2.7-11.4,6-25.2,7.3-30.7c1.3-5.4,3.9-16.4,5.6-24.4
				c2.7-12.3,4.4-17.4,5.4-16.3c0.6,0.6-16.2,76.4-21.2,95.8c-7,26.9-12.8,39.8-22.5,49.5c-11.7,11.7-27.1,17.9-50,20.2
				C422.8,672.7,404.3,672.9,397,672.3z M209.7,671.2c-17.5-1.5-42.8-5.6-44.4-7.1c-1.6-1.5,4.1-1.5,14.3,0.3
				c32.8,5.5,63.6,6.3,84.5,2.1c23.2-4.6,42.1-15.4,51.4-29.4c4.1-6.2,6.1-12.2,7.2-21.8c0.9-7.9,1.8-8.1,1.9-0.5
				c0.2,10.3-5,22.8-12.9,31.1c-12.9,13.7-31.1,21.7-56.8,25C245.7,672.2,222.2,672.3,209.7,671.2z M87.1,670.5
				c-20.7-2.1-39.3-9.6-51.4-20.8c-4.7-4.4-10.2-11.2-9-11.2c0.3,0,3.1,2.5,6.1,5.6c3,3.1,7.4,7,9.9,8.7c6,4.3,16.8,9.4,24.7,11.6
				c20.3,5.8,53.7,5.3,75.4-1.1l5.2-1.5l1-3.8c0.5-2.1,1.7-6.1,2.6-8.9c0.9-2.8,2.5-8.9,3.7-13.5c1.2-4.7,2.9-9.6,3.9-11.1
				c1-1.5,1.9-2.7,2-2.6c0.3,0.3-3.8,17.1-6.6,27.1c-1.4,4.9-2.9,10.3-3.3,11.9c-0.8,3-1,3.1-5.6,4.6
				C129.3,670.4,106.3,672.4,87.1,670.5z M709.7,668.2c-0.9-1.3-7.2-11.2-14.2-22.1c-14.2-22.3-29-45.3-34.6-54
				c-2.1-3.2-4-6.3-4.3-6.8c-0.4-0.6-0.1-0.9,0.8-0.9c1,0,5.1,5.9,14.8,21c7.4,11.5,16.9,26.4,21.2,33c4.3,6.6,9.9,15.4,12.4,19.5
				c3.5,5.6,4.9,7.2,5.5,6.6c0.5-0.5,7.6-11.7,16-25c25.3-40.2,29.3-46.5,32.6-51.5l3.1-4.7l-5-8c-2.8-4.4-5.8-9.2-6.7-10.6
				c-0.9-1.4-5.7-9-10.6-16.8c-4.9-7.8-9.7-15.4-10.6-16.8c-0.9-1.4-3.1-4.9-4.9-7.7c-9.1-14.2-13.8-22.3-13.6-23.5
				c0.2-0.8,2.5,2.3,6.7,8.9c14.1,22.4,34.4,54.6,40.7,64.4c3.8,6,6.5,10.9,6.2,11.5c-0.4,0.9-17.8,28.9-24.2,38.7
				c-1.3,2-8.4,13.2-15.7,24.8c-7.3,11.6-13.5,21.4-13.8,21.7C711.4,670.3,710.5,669.5,709.7,668.2z M391.7,629.4
				c-1.1-0.9-2.5-2.7-3.1-4c-2.2-4.2-1.2-18.9,2.1-33.7c0.6-2.6,4-18,7.7-34.3c10.3-46.3,10.9-48.7,12.5-50.1c0.8-0.7,1.5-1.1,1.7-1
				c0.3,0.3-2.8,14.3-12.6,58c-7.1,31.8-8.8,40.9-9.4,50.4c-0.4,7.1-0.4,7.4,1.9,11.6c1.2,2.3,2.3,4.4,2.3,4.6
				C394.8,631.6,393.5,631,391.7,629.4z M253.9,611c-3.4-2.6-9-5.5-27.7-14c-13.5-6.2-20.7-10.6-27-16.6c-4.6-4.3-8.1-9.1-6.8-9.1
				c0.3,0,2.6,2,5,4.4c6.7,6.7,13.6,11.1,30.5,19.2c19.1,9.1,25.8,12.8,28.5,15.7C259.3,613.7,257.7,613.9,253.9,611z M72.9,601.1
				c-0.4-1.3-0.8-5.5-0.8-9.4c0-16.4,7.8-34.2,19.5-44.4c8.4-7.4,18.3-11.7,31.3-13.7c8.8-1.3,16.5-0.8,27.1,1.9
				c9.2,2.4,23.9,10.8,22,12.7c-0.2,0.2-1.8-0.7-3.6-1.9c-5.3-3.6-12-6.5-19.5-8.4c-5.9-1.5-8.7-1.9-17-1.9
				c-11.7,0-18.2,1.4-27.7,6.1c-8.7,4.3-18,13.6-22.8,22.9c-6,11.7-8.4,21.8-7.6,32.3c0.3,3.3,0.3,6,0.1,6
				C73.9,603.4,73.4,602.4,72.9,601.1z M251.1,551.7c-2.6-1.6-2.5-8.9,0.2-12.9c3.6-5.5,13-9.2,23.4-9.2c13-0.1,33,6.5,43.3,14.2
				c2.1,1.6,4,2.8,4.1,2.7c0.1-0.1,2.1-7.1,4.4-15.6c2.3-8.4,4.6-15.7,4.9-16.2c1.6-2.1,1.8-0.6,0.4,4.4
				c-4.3,15.7-8.1,29.5-8.4,30.4c-0.2,0.7-1.4,0.2-4.1-1.7c-8-5.8-21.9-11.4-34.2-13.9c-19.5-3.9-36.2,3.8-33.5,15.5
				C252.4,552.3,252.4,552.5,251.1,551.7z"/>
			<path id="path7762" class="st6" d="M398.3,672c-21.9-1.8-35.5-6.4-46.6-15.6c-4.1-3.4-8-7.8-6.9-7.8c0.2,0,2.4,1.8,4.8,4
				c9.1,8.1,16.8,12.1,28.8,14.9c19.2,4.4,47.6,4.1,68.1-0.9c15.7-3.8,29-12.2,36.8-23.3c6.3-8.9,9.6-16.7,15.6-37.3
				c4.7-16,11.4-43.9,19.4-80.8c2-9.3,4-17.3,4.4-17.7c0.5-0.5,0.7-0.4,0.7,0.1c0,3.2-18,84.1-21.9,98.1
				c-3.4,12.6-6.5,21.6-9.9,28.8c-9.4,20.4-27.3,32.3-54.5,36.3C427.3,672.3,408.3,672.9,398.3,672z M213.7,671.3
				c-20.4-1.7-46.2-5.7-47.8-7.4c-0.9-0.9,2.4-0.6,13.9,1.5c24.9,4.5,55.3,6,73.7,3.7c37.6-4.7,63.2-21.7,68.4-45.4
				c1-4.4,2.1-6.1,2.1-3.3c0,4-3.7,13.7-7.4,19.1c-10.6,15.9-30.6,26.4-58.5,30.7C249.1,671.6,224.7,672.2,213.7,671.3z M83.8,669.8
				c-11.4-1.4-23.1-4.9-32.3-9.5c-8.2-4.1-19.5-12.8-19.5-15.1c0-0.7,1.3,0.1,3.5,2.1c10.4,9.7,25,16.6,42.5,20
				c8.3,1.6,31,2.2,41.6,1.1c15.7-1.6,28.1-4.9,29.2-7.6c1.3-3.4,6.1-21,7.7-28.1c1.5-6.7,2.9-10.2,3.7-9.4
				c0.5,0.5-6.1,26.5-9.7,38.6c-0.7,2.4-11.8,5.6-25.6,7.5C116.3,670.7,91.9,670.8,83.8,669.8z M710.7,669.5c-1-1,2.6-7.2,24.5-41.9
				c12.8-20.3,24.1-38.2,25.1-39.9c1.1-1.8,2.6-3.2,3.6-3.4c0.9-0.2,1.7-0.2,1.7-0.1c0,0.2-4.8,7.9-16.6,26.6
				c-4.5,7-11.2,17.7-15,23.7c-3.8,6-10.1,16-14,22.3C712.5,668.7,711.4,670.2,710.7,669.5z M703.6,658.2c-0.4-0.8-0.6-1.5-0.4-1.5
				c0.2,0,0.7,0.7,1.1,1.5c0.4,0.8,0.6,1.5,0.4,1.5C704.5,659.7,704,659,703.6,658.2z M697,648c-0.4-0.8-0.6-1.5-0.4-1.5
				s0.7,0.7,1.1,1.5c0.4,0.8,0.6,1.5,0.4,1.5C697.9,649.4,697.4,648.8,697,648z M689,635.6c-0.4-0.8-0.6-1.5-0.4-1.5
				c0.2,0,0.7,0.7,1.1,1.5c0.4,0.8,0.6,1.5,0.4,1.5C689.9,637,689.4,636.4,689,635.6z M389.3,624.5c-1-2.1-1.8-5.2-1.8-6.8
				c0-8,3.9-29.4,9.8-53.6c1.8-7.4,3.5-14.3,3.7-15.2c0.2-1,1.7-6.9,3.2-13.1c1.5-6.3,3.6-14.9,4.5-19.1s2.1-8.1,2.6-8.7
				c0.5-0.6,1-0.7,1-0.3c0,0.9-4.7,22.1-12.3,55.8c-9.3,41.1-11.3,55.1-8.5,61.7C393.2,629.2,391.3,628.7,389.3,624.5z M251,608.7
				c-1.8-1.1-8.9-4.6-15.7-7.8c-6.8-3.1-15.2-7.1-18.6-8.8c-6.1-3-16.5-10.3-19.2-13.3c-2.3-2.7,0.3-1.4,5,2.3
				c6.4,5.1,12.6,8.6,26,14.8c15.7,7.2,24.3,11.7,25.9,13.5C256.1,611.3,254.8,611.1,251,608.7z M667.1,601.2
				c-0.4-0.8-0.6-1.5-0.4-1.5s0.7,0.7,1.1,1.5c0.4,0.8,0.6,1.5,0.4,1.5C668,602.7,667.5,602.1,667.1,601.2z M72.7,597.4
				c-0.9-2.2-0.6-8.9,0.6-14.9c2.6-12.9,8.5-23.8,17.4-32.7c4.8-4.8,7.3-6.6,12.8-9.3c3.8-1.9,8.9-3.9,11.3-4.5
				c5.9-1.6,20.5-2.2,27.3-1.1c11.5,1.8,26.4,8.2,29.2,12.5l1.2,1.8l-2.6-1.9c-4.6-3.4-13.2-7.3-20.4-9.2
				c-9.6-2.6-25.2-2.7-33.9-0.3c-10.3,2.8-16,6.2-24.2,14.3c-6.6,6.5-7.7,8.1-11.1,15c-4.5,9.2-6,14.8-6.6,24.5
				C73.4,595.8,73,598.2,72.7,597.4z M249.8,548.4c-1.5-5.8,3.6-12.6,11.7-15.8c3.8-1.5,5.6-1.7,13.9-1.7c8.9,0,10.1,0.2,18.2,2.8
				c9.4,2.9,19.9,7.6,25.2,11.3c1.8,1.2,3.3,2.2,3.4,2.1c0.1-0.1,2.1-7.3,4.5-16.1c4.2-15.5,4.8-17.2,5.6-16.4
				c0.4,0.4-8.4,33.6-9.1,34.4c-0.3,0.3-2.1-0.5-4.1-1.9c-7.6-5.4-21-10.8-34.1-13.6c-8.4-1.8-11.4-1.9-17.9-0.4
				c-10,2.3-15.7,7-15.9,13.2C251.1,550.1,250.5,551.1,249.8,548.4z"/>
		</g>
		<path id="path12753" class="st7" d="M467.8,622.7c-71.2-16-88.3-53.9-88.3-53.9s54.3,58.9,194,35.8
			c145.6-24,174.1-102.6,174.1-102.6s-1.6,54.9-90.7,97.8C614.9,620,533,637.3,467.8,622.7"/>
		<path id="path12727" class="st7" d="M467.8,622.7c-71.2-16-88.3-53.9-88.3-53.9s54.3,58.9,194,35.8
			c145.6-24,174.1-102.6,174.1-102.6s-1.6,54.9-90.7,97.8C614.9,620,533,637.3,467.8,622.7"/>
		<g id="g13733" transform="matrix(5.5082345,0,0,-5.5082345,-2243.9273,506.41943)">
			<path id="path3569" class="st8" d="M517.7-7.7c-0.3,0.5-1,0.6-1,0.6s0,0.1-0.1,0.2c-0.3,0.2-0.8-0.1-1.2-0.1
				c-0.3,0-0.6,0-0.9,0.1c-0.3,0.1-0.6,0.4-0.9,0.6c-0.4,0.3-1,0.8-1.2,1.1c-0.2,0.2-0.3,0.3-0.4,0.5c0.1-0.1,0.2-0.2,0.6-0.3
				c0.4,0,0.7,0.1,0.9,0.3c0,0.1,0.1,0.1,0.1,0.2c-0.1,0-0.3,0-0.4,0.1s-0.2,0.1-0.1,0.2c0.2,0,0.3,0,0.6,0.1
				c0.3,0.1,0.5,0.3,0.5,0.3c0,0-0.3,0-0.5,0.1c-0.3,0.1-0.4,0.3-0.4,0.3s0.3,0,0.6,0c0.3,0,0.7,0.3,0.7,0.3c0,0-0.4,0-0.7,0.2
				c-0.2,0.1-0.2,0.3-0.2,0.3s0.3,0,0.5,0c0.3,0.1,0.5,0.2,0.6,0.5c0,0-0.2-0.1-0.4,0c-0.2,0-0.3,0.1-0.5,0.3c0,0,0.4,0,0.6,0.1
				c0.3,0.2,0.3,0.4,0.2,0.5c0,0-0.1,0-0.4,0.1c-1,0.2-1.2,1.3-2.3,1.9c-0.2,0.1-2,0.8-2,0.8l0.1,0.5c0,0,0.2,0.1,0.3,0.2
				c0.1,0.1,0.2,0.2,0.2,0.2c0.1,0-0.2-0.7,0-0.8c0.3,0,1,0.8,1.3,0.9c0.2-0.1,0.2-0.6,0.2-0.8c0,0,0-0.1,0-0.1
				c0.4,0.2,0.7,0.5,0.9,0.8c0.1,0,0.2,0,0.3,0c0.1-0.1,0.3-0.1,0.3-0.3c-0.1-0.3-0.2-0.5,0.1-0.8c0-0.3,0.1-0.7,0.3-0.8
				c0.2-0.2,0.5-0.3,0.8-0.2c0,0,0.1,0,0.1,0c-0.1,0.1-0.2,0.2-0.3,0.3c-0.1,0.1-0.1,0.3-0.1,0.4c0.2,0,0.3,0.3,0.3,0.3s0.2,0,0.4,0
				s0.3,0.1,0.3,0.1s0.2-0.1,0.2-0.2c0.5-0.5,0.4-0.8,0.4-0.8h0c0.2,0.2,0.3,0.5,0.3,0.8c0,0.6-0.5,1.1-0.5,1.1s0.1,0.1,0.1,0.2
				c0.1,0.1,0.2,0.1,0.3,0.1c0.3,0,0.6-0.4,0.7-0.7h0c0.1,0.3,0.1,0.6,0.1,0.9c-0.1,0.3-0.4,0.7-0.7,0.7c-0.1,0-0.3,0-0.3,0
				s-0.1,0.1-0.3,0.1c-0.2,0-0.2,0.1-0.2,0.1s0.1,0.1,0.3,0.3c0.2,0.2,0.6,0.3,0.6,0.3s-0.5,0.2-1.1,0c-0.3-0.1-0.5-0.3-0.5-0.3
				s-0.3-0.1-0.4-0.2c-0.1-0.1-0.3-0.3-0.3-0.4c0-0.2,0.1-0.2-0.1-0.3c-0.2,0-0.6,0.1-0.6,0.1l0.1,0.6c0,0,0.2,0,0.3,0
				c0,0-0.2,0.5-0.3,0.8c0,0,0,0.1,0,0.1c0.2-0.1,0.5-0.2,0.9-0.1c0.5,0.1,0.8,0.4,0.8,0.4s-0.2,0.1-0.5,0.3
				c-0.1,0.1-0.5,0.7-0.6,0.9c0.1,0.1,0.7,0.6,0.7,0.8c0,0-0.3-0.1-0.5-0.1c-0.2,0-0.4,0-0.4,0s0.3,0.6,0.3,0.7
				c-0.1,0-0.2-0.1-0.3-0.1c0.1,0.4,0.4,0.7,0.6,1c0.1,0.1,0.1,0.2,0.2,0.2c0.2-0.1,0.5-0.1,0.7,0c0.3-0.1,0.7-0.2,1,0
				c0.3,0.2,0.4,0.5,0.4,0.8c0,0,0,0.1-0.1,0.1c-0.1-0.1-0.1-0.2-0.2-0.3c-0.2-0.1-0.4-0.2-0.6-0.2c-0.2,0-0.2,0.1-0.2,0.1
				s0,0.1,0,0.1c0,0.1,0,0.2,0,0.2s0.2,0,0.4,0.1c0.2,0.1,0.2,0.4,0.2,0.4s0.2,0.1,0.4,0.1c0.4,0,0.6-0.3,0.6-0.3s0,0.6-0.6,0.9
				c-0.2,0.1-0.8,0-0.8,0s-0.2,0-0.1,0.2c0.1,0.1,0,0.2,0,0.2s0.1,0.2,0.2,0.3c0.3,0.2,0.7,0.2,0.7,0.2s-0.2,0.4-0.5,0.4
				c-0.3,0.1-0.7,0-1-0.2c-0.1-0.1-0.2-0.1-0.3-0.3c0,0-0.1-0.1-0.1,0c0.1,0.3,0.3,0.7,0.6,0.9l0,0c-0.2,0.1-0.7,0-1-0.2
				c-0.2-0.2-0.4-0.5-0.5-0.7c0,0-0.4-0.2-0.4-0.8c0-0.3,0.1-0.4,0.2-0.5c0.1-0.1,0.1-0.1,0-0.2c-0.1-0.2-0.3-0.6-0.5-0.9
				c-0.3-0.4-0.7-0.8-0.7-0.8l-0.1,0.3c0,0-0.5-0.1-0.7,0c-0.4,0.1-0.6,0.3-0.6,0.3l0,0c0,0,0,0.1,0.1,0.3c0,0.2,0,0.3,0.1,0.3
				l1,0.1c0,0,0.1,0,0.4,0.1c0.5,0.1,0.8,0.7,0.8,1.2c0,0.3-0.1,0.7-0.5,0.9c-0.3,0.1-0.6,0.1-0.9-0.1c0,0-0.1-0.1,0-0.1
				c0.2,0,0.4-0.1,0.5-0.3c0.1-0.3,0.1-0.7-0.2-0.9c-0.1-0.1-0.5-0.1-0.5-0.1l0.2,0.4c0,0-0.3-0.1-0.3-0.1c0.2,0.3,0.3,0.7,0.2,1
				c0,0-0.1,0-0.1,0s0,0.1,0,0.4c0,0.5-0.1,0.9-0.1,0.9s-0.2-0.1-0.2-0.2c-0.1,0,0,0-0.1,0.2c0,0.2-0.1,0.3-0.2,0.3
				c0,0-0.1-0.2-0.1-0.3c0,0-0.1,0-0.1,0c0,0.2-0.1,0.5-0.3,0.6c-0.1,0.1-0.5,0.3-0.5,0.3s0-0.1,0-0.2c0-0.1-0.1-0.2-0.1-0.2
				s-0.5,0.3-0.8,0.5c-0.2,0.1-0.4,0.1-0.4,0.1s0.1-0.1,0.1-0.2s0-0.2,0-0.2s-0.3,0.2-0.5,0.3c-0.2,0.1-0.5,0.2-0.5,0.2
				c0,0,0.1-0.1,0.1-0.3c0.1-0.1,0-0.2,0-0.2s-0.4,0.2-0.5,0.3c-0.1,0-0.4,0.1-0.4,0.1s0.2-0.6,0.1-0.7c-0.2,0-0.6,0-0.9,0.2
				c0,0,0-0.2,0-0.3c0-0.1,0.1-0.3,0.1-0.3s-0.3,0.1-0.5,0.1c-0.1,0-0.3,0.1-0.3,0.1s-0.2-0.2-0.1-0.7c0-0.2,0.1-0.3,0.1-0.3
				s-0.4-0.2-0.5-0.3c-0.2-0.2-0.4-0.3-0.6-0.2l0,0c0-0.3,0.5-0.7,0.5-0.7s-0.1-0.2-0.3-0.4c-0.2-0.2-0.5-0.4-0.5-0.4
				s0.1-0.2,0.2-0.3c0.2-0.2,0.5-0.6,0.5-0.6l-0.8-0.4c0,0,0.3-0.3,0.5-0.4c0.3-0.2,0.6-0.3,0.6-0.3l-0.3-0.2c0,0,0.4-0.5,0.6-0.7
				c0.2-0.2,0.5-0.4,0.5-0.4l-0.8-0.3c0,0,0.2-0.2,0.5-0.4c0.3-0.2,0.6-0.3,0.6-0.3l-0.5-0.2c0,0,0.3-0.3,0.5-0.5
				c0.3-0.2,0.7-0.4,0.7-0.4s-0.1-0.1-0.3-0.1c-0.2-0.1-0.3-0.2-0.3-0.2l0.8-0.6c0,0-0.5-0.2-0.6-0.2c-0.1,0-0.1,0-0.1-0.1
				c0.2-0.4,0.7-0.5,1.1-0.6L507,2.3c0.1-0.2,0.9-0.3,0.9-0.3l0-0.2c0,0-0.3,0-0.4,0c-0.5,0-0.9-0.5-1-0.6c-0.1-0.2-0.2-0.5-0.5-0.5
				c-0.2,0-0.4,0.1-0.5,0.3c-0.2,0.3-0.1,0.7,0.1,1.1c0.3,0.6,0.7,1.2,0.6,2c0,0.4-0.2,1.1-0.8,1.2c-1.2,0.2-1.2,0.5-1,0.8
				c0.2,0.3,0.5,0.7,0.4,1.2c-0.1,0.4-0.2,0.7-0.6,0.9c-0.4,0.2-1,0.2-1.4-0.2s-0.6-0.7-0.4-1.2c0.1-0.3,0.4-0.6,0.8-0.6
				c0,0,0.1,0,0.1,0c-0.1,0.1-0.2,0.2-0.2,0.4c0,0.2,0,0.4,0.2,0.5c0.1,0.1,0.3,0.1,0.5-0.1c0.1-0.1,0.1-0.3,0-0.4
				c-0.1-0.3-0.3-0.6-0.4-0.9c-0.1-0.4,0.2-0.7,0.5-0.8c-0.3-0.1-0.7-0.4-0.8-0.6c-0.1-0.2-0.1-0.4,0.1-0.8c0.3-0.5,0.7-0.9,0.4-1
				c-0.2-0.1-0.4,0.2-0.5,0.5c0,0,0,0.2-0.1,0.2c-0.4-0.2-0.9-1.1,0.1-1.6c0.7-0.4,1.4,0.2,1.5,1.2c0,0.9-0.4,1.2-0.4,1.5
				c0.1,0.3,0.5,0.2,0.6,0.1c0.2-0.1,0.3-0.4,0.3-0.6c-0.1-0.6-0.4-1.1-0.6-1.7c-0.3-0.5-0.6-1.3-0.2-1.8c0.6-0.9,1.6-0.4,2-0.4
				c0.2,0,0.4-0.2,0.5-0.8c0.1-0.3,0-0.6-0.2-0.9c-0.3-0.4-0.7-0.5-1.3-0.5c-0.6,0-1.2-0.2-1.6-0.4c-0.5-0.4-0.6-1-0.6-1.6
				c0-0.2-0.1-0.4-0.2-0.6c0.1-0.1,0.6,0.1,0.6,0.1s-0.1-0.7-0.3-1c0,0,0,0,0-0.1c0.2,0,0.6,0.3,0.6,0.3s-0.1-0.4-0.3-0.8
				c-0.1-0.2-0.2-0.2-0.1-0.3c0.2,0,0.9,0.3,0.9,0.3s0,0-0.1-0.4c0-0.1-0.1-0.3-0.1-0.4c-0.1-0.1-0.1-0.2-0.2-0.3
				c0.1,0,0.3,0,0.5,0.1c0.2,0.1,0.5,0.2,0.5,0.2s-0.2-0.1-0.4-0.3c-0.1-0.1-0.1-0.3-0.1-0.3h0c-0.3-0.2-0.5-0.4-0.6-0.8
				c-0.1-0.3,0.2-0.7,0.5-0.9c0.1,0,0.2-0.1,0.2-0.1c0,0.2-0.1,0.3,0,0.5c0.1,0.2,0.4,0.2,0.4,0.2s0.1,0,0.1,0
				c0.2,0,0.5,0.1,0.6,0.2c0.1-0.1,0.6-0.4,0.8-0.7c0.2-0.2,0.1-0.7,0.1-0.9c0.1,0,0.6,0.5,0.8,1c0.1,0.2,0.1,0.4,0.1,0.4
				s0.1,0,0.3-0.1c0.2-0.2,0.3-0.7,0.2-1.1l0,0c0.3,0.3,0.6,0.6,0.7,0.9c0.1,0.3,0,0.6-0.2,0.9c0,0-0.2,0.2-0.2,0.2l0,0.1
				c0,0,0.3-0.1,0.5-0.3c0.2-0.2,0.5-0.6,0.5-0.6s0.3,0.7-0.1,1.3c-0.4,0.5-1.1,0.6-1.1,0.6s-0.4,0.2-0.9,0.2
				c-0.1,0-0.5-0.2-0.5-0.2s-0.4,0.7-0.8,1.5c-0.1,0.3-0.3,0.9-0.3,0.9s0.3-0.4,0.3-0.3c0,0.1,0,0.3,0,0.4c0,0.1,0.2,0.3,0.2,0.3
				c0,0,0-0.2,0.1-0.5c0.1-0.2,0.2-0.5,0.3-0.4c0,0,0,0.2,0.1,0.4c0.1,0.2,0.3,0.4,0.3,0.4c0.1,0,0-0.1,0-0.4c0-0.1,0-0.3,0.1-0.4
				c0.1-0.1,0.1-0.2,0.2-0.2c0,0,0.1,0.3,0.2,0.5c0.1,0.2,0.4,0.5,0.5,0.5c0.1,0,0-0.4,0-0.7c0-0.2,0.1-0.4,0.2-0.4
				c0,0,0.8,0.8,0.7,0.7c-0.1-0.3,0-0.7,0.2-0.8c0,0.3,0.5,0.6,0.7,1c0.2,0.4,0.3,0.6,0.4,1c0.2,0.4,0.3,1.2,0.3,1.9
				c0,0,0.4-0.2,0.4-0.2c0.2-0.2,0.2-0.7,0.1-1.1c-0.1-0.4-0.3-0.6-0.5-1c-0.3-0.5-0.2-0.8-0.2-0.8s-0.1-0.2-0.1-0.5
				c0.1-0.5,0.2-0.6,0.2-0.8c0.1-0.4,0-0.7,0-0.8h0c0,0,0.2,0.2,0.3,0.3c0.1,0.2,0.2,0.3,0.2,0.3s0.1-0.1,0.1-0.4c0-0.1,0-0.3,0-0.5
				c0.1,0,0.2,0.1,0.3,0.3c0.1,0.2,0.2,0.3,0.2,0.3s0.1-0.3,0.2-0.5c0.1-0.3,0.1-0.5,0.2-0.7l0,0c0.1,0,0.2,0.2,0.2,0.3
				c0.1,0.2,0.1,0.3,0.1,0.3s0.1-0.2,0.2-0.4c0.1-0.2,0.1-0.4,0.2-0.5l0,0h0c0.2,0.2,0.3,0.6,0.4,0.8c0.1,0.2,0.2,0.3,0.2,0.3
				l0.4-0.4c0,0-0.1-0.1-0.2-0.2c-0.1-0.1-0.1-0.2-0.1-0.2s-0.3-0.1-0.6-0.5c-0.3-0.6,0-1.2,0.1-1.2c0.1,0.3,0.3,0.6,0.5,0.8
				c0.1,0.1,0.4,0.1,0.4,0.1s0.2-0.1,0.4,0c0.1,0,0.3,0.2,0.3,0.2c0.1,0,0.1-0.1,0.2-0.1c0.1-0.1,0.2-0.1,0.2-0.1s0.3-0.1,0.4-0.4
				c0.2-0.3,0.2-0.6,0.2-0.8l0,0c0.2,0.1,0.5,0.4,0.5,0.7c0.1,0.3,0,0.7,0,0.7h0.1c0,0,0.1-0.1,0.3-0.4c0.2-0.3,0.3-0.7,0.3-0.7
				c0.2,0.1,0.4,0.5,0.4,0.8c0,0.3,0,0.6-0.2,0.8c0.1,0,0.3,0,0.5-0.1c0.4-0.2,0.5-0.4,0.5-0.4S517.9-8.1,517.7-7.7"/>
			<path id="path3571" class="st9" d="M517.7-7.7c-0.3,0.5-1,0.6-1,0.6s0,0.1-0.1,0.2c-0.3,0.2-0.8-0.1-1.2-0.1
				c-0.3,0-0.6,0-0.9,0.1c-0.3,0.1-0.6,0.4-0.9,0.6c-0.4,0.3-1,0.8-1.2,1.1c-0.2,0.2-0.3,0.3-0.4,0.5c0.1-0.1,0.2-0.2,0.6-0.3
				c0.4,0,0.7,0.1,0.9,0.3c0,0.1,0.1,0.1,0.1,0.2c-0.1,0-0.3,0-0.4,0.1s-0.2,0.1-0.1,0.2c0.2,0,0.3,0,0.6,0.1
				c0.3,0.1,0.5,0.3,0.5,0.3c0,0-0.3,0-0.5,0.1c-0.3,0.1-0.4,0.3-0.4,0.3s0.3,0,0.6,0c0.3,0,0.7,0.3,0.7,0.3c0,0-0.4,0-0.7,0.2
				c-0.2,0.1-0.2,0.3-0.2,0.3s0.3,0,0.5,0c0.3,0.1,0.5,0.2,0.6,0.5c0,0-0.2-0.1-0.4,0c-0.2,0-0.3,0.1-0.5,0.3c0,0,0.4,0,0.6,0.1
				c0.3,0.2,0.3,0.4,0.2,0.5c0,0-0.1,0-0.4,0.1c-1,0.2-1.2,1.3-2.3,1.9c-0.2,0.1-2,0.8-2,0.8l0.1,0.5c0,0,0.2,0.1,0.3,0.2
				c0.1,0.1,0.2,0.2,0.2,0.2c0.1,0-0.2-0.7,0-0.8c0.3,0,1,0.8,1.3,0.9c0.2-0.1,0.2-0.6,0.2-0.8c0,0,0-0.1,0-0.1
				c0.4,0.2,0.7,0.5,0.9,0.8c0.1,0,0.2,0,0.3,0c0.1-0.1,0.3-0.1,0.3-0.3c-0.1-0.3-0.2-0.5,0.1-0.8c0-0.3,0.1-0.7,0.3-0.8
				c0.2-0.2,0.5-0.3,0.8-0.2c0,0,0.1,0,0.1,0c-0.1,0.1-0.2,0.2-0.3,0.3c-0.1,0.1-0.1,0.3-0.1,0.4c0.2,0,0.3,0.3,0.3,0.3s0.2,0,0.4,0
				s0.3,0.1,0.3,0.1s0.2-0.1,0.2-0.2c0.5-0.5,0.4-0.8,0.4-0.8h0c0.2,0.2,0.3,0.5,0.3,0.8c0,0.6-0.5,1.1-0.5,1.1s0.1,0.1,0.1,0.2
				c0.1,0.1,0.2,0.1,0.3,0.1c0.3,0,0.6-0.4,0.7-0.7h0c0.1,0.3,0.1,0.6,0.1,0.9c-0.1,0.3-0.4,0.7-0.7,0.7c-0.1,0-0.3,0-0.3,0
				s-0.1,0.1-0.3,0.1c-0.2,0-0.2,0.1-0.2,0.1s0.1,0.1,0.3,0.3c0.2,0.2,0.6,0.3,0.6,0.3s-0.5,0.2-1.1,0c-0.3-0.1-0.5-0.3-0.5-0.3
				s-0.3-0.1-0.4-0.2c-0.1-0.1-0.3-0.3-0.3-0.4c0-0.2,0.1-0.2-0.1-0.3c-0.2,0-0.6,0.1-0.6,0.1l0.1,0.6c0,0,0.2,0,0.3,0
				c0,0-0.2,0.5-0.3,0.8c0,0,0,0.1,0,0.1c0.2-0.1,0.5-0.2,0.9-0.1c0.5,0.1,0.8,0.4,0.8,0.4s-0.2,0.1-0.5,0.3
				c-0.1,0.1-0.5,0.7-0.6,0.9c0.1,0.1,0.7,0.6,0.7,0.8c0,0-0.3-0.1-0.5-0.1c-0.2,0-0.4,0-0.4,0s0.3,0.6,0.3,0.7
				c-0.1,0-0.2-0.1-0.3-0.1c0.1,0.4,0.4,0.7,0.6,1c0.1,0.1,0.1,0.2,0.2,0.2c0.2-0.1,0.5-0.1,0.7,0c0.3-0.1,0.7-0.2,1,0
				c0.3,0.2,0.4,0.5,0.4,0.8c0,0,0,0.1-0.1,0.1c-0.1-0.1-0.1-0.2-0.2-0.3c-0.2-0.1-0.4-0.2-0.6-0.2c-0.2,0-0.2,0.1-0.2,0.1
				s0,0.1,0,0.1c0,0.1,0,0.2,0,0.2s0.2,0,0.4,0.1c0.2,0.1,0.2,0.4,0.2,0.4s0.2,0.1,0.4,0.1c0.4,0,0.6-0.3,0.6-0.3s0,0.6-0.6,0.9
				c-0.2,0.1-0.8,0-0.8,0s-0.2,0-0.1,0.2c0.1,0.1,0,0.2,0,0.2s0.1,0.2,0.2,0.3c0.3,0.2,0.7,0.2,0.7,0.2s-0.2,0.4-0.5,0.4
				c-0.3,0.1-0.7,0-1-0.2c-0.1-0.1-0.2-0.1-0.3-0.3c0,0-0.1-0.1-0.1,0c0.1,0.3,0.3,0.7,0.6,0.9l0,0c-0.2,0.1-0.7,0-1-0.2
				c-0.2-0.2-0.4-0.5-0.5-0.7c0,0-0.4-0.2-0.4-0.8c0-0.3,0.1-0.4,0.2-0.5c0.1-0.1,0.1-0.1,0-0.2c-0.1-0.2-0.3-0.6-0.5-0.9
				c-0.3-0.4-0.7-0.8-0.7-0.8l-0.1,0.3c0,0-0.5-0.1-0.7,0c-0.4,0.1-0.6,0.3-0.6,0.3l0,0c0,0,0,0.1,0.1,0.3c0,0.2,0,0.3,0.1,0.3
				l1,0.1c0,0,0.1,0,0.4,0.1c0.5,0.1,0.8,0.7,0.8,1.2c0,0.3-0.1,0.7-0.5,0.9c-0.3,0.1-0.6,0.1-0.9-0.1c0,0-0.1-0.1,0-0.1
				c0.2,0,0.4-0.1,0.5-0.3c0.1-0.3,0.1-0.7-0.2-0.9c-0.1-0.1-0.5-0.1-0.5-0.1l0.2,0.4c0,0-0.3-0.1-0.3-0.1c0.2,0.3,0.3,0.7,0.2,1
				c0,0-0.1,0-0.1,0s0,0.1,0,0.4c0,0.5-0.1,0.9-0.1,0.9s-0.2-0.1-0.2-0.2c-0.1,0,0,0-0.1,0.2c0,0.2-0.1,0.3-0.2,0.3
				c0,0-0.1-0.2-0.1-0.3c0,0-0.1,0-0.1,0c0,0.2-0.1,0.5-0.3,0.6c-0.1,0.1-0.5,0.3-0.5,0.3s0-0.1,0-0.2c0-0.1-0.1-0.2-0.1-0.2
				s-0.5,0.3-0.8,0.5c-0.2,0.1-0.4,0.1-0.4,0.1s0.1-0.1,0.1-0.2s0-0.2,0-0.2s-0.3,0.2-0.5,0.3c-0.2,0.1-0.5,0.2-0.5,0.2
				c0,0,0.1-0.1,0.1-0.3c0.1-0.1,0-0.2,0-0.2s-0.4,0.2-0.5,0.3c-0.1,0-0.4,0.1-0.4,0.1s0.2-0.6,0.1-0.7c-0.2,0-0.6,0-0.9,0.2
				c0,0,0-0.2,0-0.3c0-0.1,0.1-0.3,0.1-0.3s-0.3,0.1-0.5,0.1c-0.1,0-0.3,0.1-0.3,0.1s-0.2-0.2-0.1-0.7c0-0.2,0.1-0.3,0.1-0.3
				s-0.4-0.2-0.5-0.3c-0.2-0.2-0.4-0.3-0.6-0.2l0,0c0-0.3,0.5-0.7,0.5-0.7s-0.1-0.2-0.3-0.4c-0.2-0.2-0.5-0.4-0.5-0.4
				s0.1-0.2,0.2-0.3c0.2-0.2,0.5-0.6,0.5-0.6l-0.8-0.4c0,0,0.3-0.3,0.5-0.4c0.3-0.2,0.6-0.3,0.6-0.3l-0.3-0.2c0,0,0.4-0.5,0.6-0.7
				c0.2-0.2,0.5-0.4,0.5-0.4l-0.8-0.3c0,0,0.2-0.2,0.5-0.4c0.3-0.2,0.6-0.3,0.6-0.3l-0.5-0.2c0,0,0.3-0.3,0.5-0.5
				c0.3-0.2,0.7-0.4,0.7-0.4s-0.1-0.1-0.3-0.1c-0.2-0.1-0.3-0.2-0.3-0.2l0.8-0.6c0,0-0.5-0.2-0.6-0.2c-0.1,0-0.1,0-0.1-0.1
				c0.2-0.4,0.7-0.5,1.1-0.6L507,2.3c0.1-0.2,0.9-0.3,0.9-0.3l0-0.2c0,0-0.3,0-0.4,0c-0.5,0-0.9-0.5-1-0.6c-0.1-0.2-0.2-0.5-0.5-0.5
				c-0.2,0-0.4,0.1-0.5,0.3c-0.2,0.3-0.1,0.7,0.1,1.1c0.3,0.6,0.7,1.2,0.6,2c0,0.4-0.2,1.1-0.8,1.2c-1.2,0.2-1.2,0.5-1,0.8
				c0.2,0.3,0.5,0.7,0.4,1.2c-0.1,0.4-0.2,0.7-0.6,0.9c-0.4,0.2-1,0.2-1.4-0.2s-0.6-0.7-0.4-1.2c0.1-0.3,0.4-0.6,0.8-0.6
				c0,0,0.1,0,0.1,0c-0.1,0.1-0.2,0.2-0.2,0.4c0,0.2,0,0.4,0.2,0.5c0.1,0.1,0.3,0.1,0.5-0.1c0.1-0.1,0.1-0.3,0-0.4
				c-0.1-0.3-0.3-0.6-0.4-0.9c-0.1-0.4,0.2-0.7,0.5-0.8c-0.3-0.1-0.7-0.4-0.8-0.6c-0.1-0.2-0.1-0.4,0.1-0.8c0.3-0.5,0.7-0.9,0.4-1
				c-0.2-0.1-0.4,0.2-0.5,0.5c0,0,0,0.2-0.1,0.2c-0.4-0.2-0.9-1.1,0.1-1.6c0.7-0.4,1.4,0.2,1.5,1.2c0,0.9-0.4,1.2-0.4,1.5
				c0.1,0.3,0.5,0.2,0.6,0.1c0.2-0.1,0.3-0.4,0.3-0.6c-0.1-0.6-0.4-1.1-0.6-1.7c-0.3-0.5-0.6-1.3-0.2-1.8c0.6-0.9,1.6-0.4,2-0.4
				c0.2,0,0.4-0.2,0.5-0.8c0.1-0.3,0-0.6-0.2-0.9c-0.3-0.4-0.7-0.5-1.3-0.5c-0.6,0-1.2-0.2-1.6-0.4c-0.5-0.4-0.6-1-0.6-1.6
				c0-0.2-0.1-0.4-0.2-0.6c0.1-0.1,0.6,0.1,0.6,0.1s-0.1-0.7-0.3-1c0,0,0,0,0-0.1c0.2,0,0.6,0.3,0.6,0.3s-0.1-0.4-0.3-0.8
				c-0.1-0.2-0.2-0.2-0.1-0.3c0.2,0,0.9,0.3,0.9,0.3s0,0-0.1-0.4c0-0.1-0.1-0.3-0.1-0.4c-0.1-0.1-0.1-0.2-0.2-0.3
				c0.1,0,0.3,0,0.5,0.1c0.2,0.1,0.5,0.2,0.5,0.2s-0.2-0.1-0.4-0.3c-0.1-0.1-0.1-0.3-0.1-0.3h0c-0.3-0.2-0.5-0.4-0.6-0.8
				c-0.1-0.3,0.2-0.7,0.5-0.9c0.1,0,0.2-0.1,0.2-0.1c0,0.2-0.1,0.3,0,0.5c0.1,0.2,0.4,0.2,0.4,0.2s0.1,0,0.1,0
				c0.2,0,0.5,0.1,0.6,0.2c0.1-0.1,0.6-0.4,0.8-0.7c0.2-0.2,0.1-0.7,0.1-0.9c0.1,0,0.6,0.5,0.8,1c0.1,0.2,0.1,0.4,0.1,0.4
				s0.1,0,0.3-0.1c0.2-0.2,0.3-0.7,0.2-1.1l0,0c0.3,0.3,0.6,0.6,0.7,0.9c0.1,0.3,0,0.6-0.2,0.9c0,0-0.2,0.2-0.2,0.2l0,0.1
				c0,0,0.3-0.1,0.5-0.3c0.2-0.2,0.5-0.6,0.5-0.6s0.3,0.7-0.1,1.3c-0.4,0.5-1.1,0.6-1.1,0.6s-0.4,0.2-0.9,0.2
				c-0.1,0-0.5-0.2-0.5-0.2s-0.4,0.7-0.8,1.5c-0.1,0.3-0.3,0.9-0.3,0.9s0.3-0.4,0.3-0.3c0,0.1,0,0.3,0,0.4c0,0.1,0.2,0.3,0.2,0.3
				c0,0,0-0.2,0.1-0.5c0.1-0.2,0.2-0.5,0.3-0.4c0,0,0,0.2,0.1,0.4c0.1,0.2,0.3,0.4,0.3,0.4c0.1,0,0-0.1,0-0.4c0-0.1,0-0.3,0.1-0.4
				c0.1-0.1,0.1-0.2,0.2-0.2c0,0,0.1,0.3,0.2,0.5c0.1,0.2,0.4,0.5,0.5,0.5c0.1,0,0-0.4,0-0.7c0-0.2,0.1-0.4,0.2-0.4
				c0,0,0.8,0.8,0.7,0.7c-0.1-0.3,0-0.7,0.2-0.8c0,0.3,0.5,0.6,0.7,1c0.2,0.4,0.3,0.6,0.4,1c0.2,0.4,0.3,1.2,0.3,1.9
				c0,0,0.4-0.2,0.4-0.2c0.2-0.2,0.2-0.7,0.1-1.1c-0.1-0.4-0.3-0.6-0.5-1c-0.3-0.5-0.2-0.8-0.2-0.8s-0.1-0.2-0.1-0.5
				c0.1-0.5,0.2-0.6,0.2-0.8c0.1-0.4,0-0.7,0-0.8h0c0,0,0.2,0.2,0.3,0.3c0.1,0.2,0.2,0.3,0.2,0.3s0.1-0.1,0.1-0.4c0-0.1,0-0.3,0-0.5
				c0.1,0,0.2,0.1,0.3,0.3c0.1,0.2,0.2,0.3,0.2,0.3s0.1-0.3,0.2-0.5c0.1-0.3,0.1-0.5,0.2-0.7l0,0c0.1,0,0.2,0.2,0.2,0.3
				c0.1,0.2,0.1,0.3,0.1,0.3s0.1-0.2,0.2-0.4c0.1-0.2,0.1-0.4,0.2-0.5l0,0h0c0.2,0.2,0.3,0.6,0.4,0.8c0.1,0.2,0.2,0.3,0.2,0.3
				l0.4-0.4c0,0-0.1-0.1-0.2-0.2c-0.1-0.1-0.1-0.2-0.1-0.2s-0.3-0.1-0.6-0.5c-0.3-0.6,0-1.2,0.1-1.2c0.1,0.3,0.3,0.6,0.5,0.8
				c0.1,0.1,0.4,0.1,0.4,0.1s0.2-0.1,0.4,0c0.1,0,0.3,0.2,0.3,0.2c0.1,0,0.1-0.1,0.2-0.1c0.1-0.1,0.2-0.1,0.2-0.1s0.3-0.1,0.4-0.4
				c0.2-0.3,0.2-0.6,0.2-0.8l0,0c0.2,0.1,0.5,0.4,0.5,0.7c0.1,0.3,0,0.7,0,0.7h0.1c0,0,0.1-0.1,0.3-0.4c0.2-0.3,0.3-0.7,0.3-0.7
				c0.2,0.1,0.4,0.5,0.4,0.8c0,0.3,0,0.6-0.2,0.8c0.1,0,0.3,0,0.5-0.1c0.4-0.2,0.5-0.4,0.5-0.4S517.9-8.1,517.7-7.7z M516.7,3.1
				c0.2-0.2,0.2-0.6,0.2-0.6s-0.2,0.3-0.5,0.4c-0.1,0-0.3,0-0.3,0s0,0.1,0,0.3c0,0.1-0.1,0.2-0.1,0.3C516.3,3.4,516.6,3.3,516.7,3.1
				z M514.5,0.4c0,0-0.3,0-0.4,0.2c-0.2,0.2-0.2,0.5-0.2,0.5S514,1,514.2,1C514.2,0.8,514.5,0.4,514.5,0.4z M514.4,1.3
				c-0.1-0.1-0.2-0.1-0.4-0.1c-0.1,0-0.2,0.1-0.3,0.2c-0.1,0.2,0,0.4,0,0.6l0,0c0.3-0.1,0.6-0.3,0.7-0.6
				C514.5,1.4,514.5,1.3,514.4,1.3z M516.1,1.6c0.1-0.5,0-0.7,0-0.7s-0.1,0.3-0.3,0.5c-0.1,0.1-0.3,0.2-0.3,0.2s0.1,0.1,0.2,0.2
				c0.1,0.1,0.1,0.3,0.1,0.3S516,1.9,516.1,1.6z M515.3,4.4c0.2,0.1,0.6,0.1,0.6,0.1s-0.2-0.1-0.4-0.2c-0.1-0.1-0.2-0.3-0.2-0.3
				s0,0.1-0.1,0.1c-0.1,0.1-0.2,0.1-0.2,0.1S515,4.3,515.3,4.4z M514.1,3.1c0.1,0,0.1,0.3,0.1,0.4c0,0.2,0.1,0.3,0.3,0.4
				c0.2,0.1,0.3,0.1,0.5,0c0.1-0.1,0.1-0.2,0.1-0.4c0.1-0.1,0.2,0,0.3,0c0.1,0,0.2,0,0.3-0.2c0.2-0.3,0-0.6-0.1-0.7
				c-0.1-0.1-0.3,0-0.3,0s0.1-0.2,0.1-0.3c0-0.1,0-0.5-0.2-0.7c-0.1-0.1-0.3-0.2-0.4-0.1c-0.2,0.1-0.4,0.2-0.6,0.4
				c-0.4,0.3-1.2,0.6-1.2,0.6s0.1,0.1,0.1,0.3c0.1,0.1,0.1,0.3,0.1,0.3S513.8,3.1,514.1,3.1z M514.9,5.2c0,0-0.3-0.3-0.7-0.2
				c-0.4,0-0.8,0.2-0.8,0.2l-0.2,0.4c0,0,0.6,0,1-0.1C514.6,5.3,514.9,5.2,514.9,5.2z M515.9,9.1c0.4,0,0.6,0.3,0.6,0.3
				s-0.1-0.5-0.6-0.6c-0.3,0-0.6,0.1-0.6,0.1s0.1,0,0.1,0.1c0,0.1,0,0.1,0,0.1S515.6,9.1,515.9,9.1z M516.4,10.8
				c0.5-0.1,0.6-0.5,0.6-0.5s-0.3,0.1-0.5,0.2c-0.2,0-0.4,0-0.4,0s-0.1,0.2-0.1,0.3c0,0-0.1,0.1-0.1,0.1S516,10.9,516.4,10.8z
				 M515.5,12c0.2,0.1,0.7,0.1,0.8-0.1v0c-0.3,0.1-0.6-0.2-0.8-0.4c0,0-0.1,0.1-0.2,0.1c-0.1,0.1-0.2,0.1-0.2,0.1S515.3,12,515.5,12
				z M514.2,12.2c0.4,0.4,0.7,0.3,0.7,0.3s-0.2-0.1-0.4-0.4c-0.1-0.2-0.1-0.4-0.1-0.4s-0.1,0.1-0.3,0.1c-0.1,0-0.2,0-0.2,0
				S514.1,12.1,514.2,12.2z M513.3,9.2c0.2,0.3,0.3,0.5,0.5,0.7c0.1,0.2,0.1,0.3,0.1,0.5c0,0.1-0.1,0.2-0.2,0.3
				c-0.1,0.1,0,0.4,0,0.5c0.1,0.2,0.4,0.3,0.6,0.2c0.1,0,0-0.2,0.2-0.2c0.1,0.1,0.3,0.2,0.5,0.2c0.1,0,0.3-0.1,0.3-0.3
				c0-0.2-0.1-0.3-0.3-0.4c0,0,0-0.1,0,0c0.2,0,0.6,0.2,0.7,0c0.1-0.1,0.2-0.5,0.2-0.6c-0.2-0.3-0.7-0.2-1-0.3
				c-0.1,0-0.3-0.1-0.2-0.2c0,0,0.1,0,0.3,0c0.1,0,0.3,0,0.4,0c0.1-0.1,0-0.2,0-0.3c0-0.1-0.3-0.4-0.5-0.4c-0.3-0.1-0.6,0.3-0.9,0.1
				c-0.1-0.1-0.2-0.2-0.2-0.3l0,0c0.1,0,0.2,0.1,0.3,0.1c0.1,0,0.1-0.2,0.1-0.2c-0.2-0.4-0.4-0.7-0.7-1.1c0,0-0.6,0-0.6,0l0.5,0.8
				l-0.8,0C512.8,8.6,513.1,9,513.3,9.2z M511.5,8.6c0.1,0,0.7-0.1,0.7-0.1l0.1-0.5l0.7,0c0,0-0.1-0.1-0.2-0.2
				c-0.1-0.2-0.3-0.4-0.3-0.4l0.5-0.1c0.1,0,0.3,0,0.4,0c0.2,0,0.4,0.1,0.5,0.1c0-0.1-0.2-0.4-0.3-0.5c0,0,0.2-0.1,0.4-0.1
				c0.2,0,0.4,0,0.4,0s-0.4-0.3-0.4-0.3c-0.2-0.1-0.3-0.1-0.1-0.3c0.2-0.1,0.5-0.7,0.5-0.7l0,0c0,0-0.1,0-0.1,0
				c-0.3,0-0.8,0.1-0.8,0.1s-0.5,0.1-0.8,0.5c-0.1,0.2-0.1,0.5-0.1,0.5s-0.1,0.1-0.5,0.2c-0.3,0.2-0.4,0.5-0.4,0.5s0.1,0,0.3,0
				c0.1,0,0.3,0,0.3,0s-0.1,0.1-0.3,0.2c-0.1,0.1-0.5,0.1-0.5,0.1s-0.2,0.4-0.3,0.6c-0.1,0.1-0.2,0.3-0.3,0.5l0,0
				C511.1,8.8,511.3,8.7,511.5,8.6z M511.7,10.2c0.3,0.1,0.7,0.3,0.8,0.6c0.1,0.2,0.1,0.6,0,0.8c0,0.1-0.3,0.3-0.3,0.3
				s0.7,0.1,0.9-0.4c0.2-0.4,0.1-0.9-0.3-1.3c-0.5-0.4-1.2-0.2-1.8-0.4c-0.3-0.1-1-0.3-1-0.2c0,0.1,0.3,0.2,0.5,0.2
				C510.8,10.1,511.3,10.1,511.7,10.2z M508.5,9.5c-0.5,0.2-0.7,0.6-0.9,1.1c-0.1,0.3-0.3,0.8,0,1.1c0.1,0.1,0.2,0.2,0.3,0.3
				c0.1,0,0.2,0,0.3,0c0.2,0,0.4,0.2,0.5,0.3c0.2,0,0.4,0.1,0.6,0.2c0.2,0,0.4,0,0.6,0c0-0.1,0.1-0.1,0.1-0.2
				c-0.2-0.1-0.4-0.1-0.6-0.4c-0.1-0.5,0.5-0.6,0.7-0.9c0-0.1-0.1-0.1-0.1-0.2c0-0.1,0-0.1-0.1-0.2c-0.1-0.1-0.2-0.1-0.3-0.1
				c-0.1,0.1-0.3-0.1-0.4,0c-0.1,0-0.1,0.1-0.1,0.2c0,0-0.1,0-0.1,0c-0.1-0.1-0.2-0.1-0.1-0.2c0.1-0.2,0.2-0.3,0.4-0.3
				c0.1,0,0.3,0,0.3-0.1c0-0.1,0-0.2-0.1-0.3c-0.2-0.1-0.4-0.2-0.6-0.1l-0.2,0.1c-0.1,0.1-0.2,0.2-0.3,0.2c-0.1,0,0.2-0.5,0.4-0.6
				c0.1-0.1,0.3,0,0.4,0c0.3-0.4,1-0.1,1.4,0c0.3,0.1,0-0.5-0.2-0.6c-0.5-0.2-1.1-0.2-1.5,0.1c-0.2,0.1-0.3,0.4-0.4,0.4
				C508.5,9.6,508.6,9.5,508.5,9.5z M510.4,11.1C510.4,11.1,510.4,11.1,510.4,11.1C510.4,11.1,510.4,11.1,510.4,11.1
				c0.1,0.1,0.3,0.1,0.3,0.1c0.1-0.1,0.1-0.2,0.1-0.4c0-0.1,0-0.2,0-0.2c0-0.1-0.1-0.2-0.2-0.2c-0.1,0-0.2-0.1-0.3-0.1
				c0,0.1,0.1,0.1,0.2,0.2c0.1,0.1,0.1,0.2,0.1,0.3C510.5,10.9,510.5,11,510.4,11.1z M510.5,11.5L510.5,11.5
				c-0.1,0.1-0.1,0.2-0.2,0.2c-0.2,0.2-0.3,0.2-0.3,0.2s0.3,0.1,0.5-0.1C510.6,11.6,510.6,11.6,510.5,11.5z M510.3,11.4l-0.4,0
				l-0.2,0.2C509.6,11.6,510.1,12.1,510.3,11.4z M508.9,14c0,0,0.4-0.2,0.5-0.2c0.1-0.1,0.5-0.4,0.5-0.4s0.1,0.1,0.1,0.2
				c0,0.1,0.1,0.2,0.1,0.2s0.3-0.2,0.4-0.5c0-0.1,0.1-0.4,0.1-0.4s0.3-0.2,0.4-0.1c0,0,0.1,0.3,0.1,0.3c0-0.1,0.1-0.4,0.1-0.5
				c0.2-0.1,0.4,0.1,0.4,0.1s0-0.3,0-0.6c0-0.2-0.2-0.5-0.2-0.5l0.2,0.1c0,0,0.1-0.2,0-0.5c-0.1-0.3-0.2-0.7-0.2-0.7l0.2,0
				c0,0-0.1-0.2-0.1-0.2c-0.1-0.1-0.3-0.1-0.5-0.2c0,0-0.1,0-0.1,0l0.1,0.3c0,0,0.1,0.2,0.1,0.4c0,0.1-0.1,0.2-0.1,0.3
				c0,0,0,0,0,0.1c-0.1,0.1-0.1,0.1-0.1,0.3c0,0.3,0,0.2-0.1,0.4c0,0,0,0,0,0c0,0-0.1,0-0.1,0c0,0,0,0.2-0.1,0.3
				c-0.1,0-0.2-0.1-0.2-0.1s-0.1,0-0.1,0.1c-0.1,0.1-0.2,0.5-0.2,0.5s-0.2-0.3-0.4-0.2l-0.2,0.1c0,0.1,0,0.3-0.1,0.4
				c-0.1,0.1-0.1,0.1-0.3,0.3c0,0,0,0,0,0.1C508.9,13.8,508.9,14,508.9,14z M504.5,11.3c0.1,0,0.2,0,0.3,0.1
				c0.2,0.1,0.3,0.3,0.4,0.4c0,0,0.4,0.2,0.4,0.2s-0.1,0.1-0.1,0.2c-0.1,0.4,0,0.6,0,0.6s0.1-0.1,0.4-0.1c0.3,0,0.5,0,0.5,0
				s0,0.2,0,0.2c0,0.1,0,0.2-0.1,0.3c0.3-0.1,0.7-0.1,0.8-0.1c0.2,0,0.2,0.6,0.2,0.7c0.1,0,0.3-0.1,0.5-0.2c0.1-0.1,0.3-0.1,0.3-0.1
				s0.1,0,0.1,0.1c0,0.1,0,0.4,0,0.4s0.1,0,0.4-0.2c0.3-0.1,0.4-0.2,0.4-0.2s0.2-0.1,0.3-0.3c0.2-0.4,0-0.6,0-0.6l-0.1-0.1
				c-0.1,0-0.2,0-0.3,0.1c-0.2,0.1-0.4,0-0.4,0s0.1-0.1,0.2-0.2c0-0.1-0.1-0.3-0.1-0.3l-0.3-0.1c-0.3,0.1-0.6,0.1-0.6,0.1
				s0.3-0.3,0.3-0.3c-0.1-0.3-0.1-0.3-0.3-0.4c-0.1-0.1-0.6-0.1-0.6-0.2c0.1,0,0.5-0.1,0.5-0.3c0-0.2-0.1-0.3-0.2-0.4
				c-0.1-0.2-0.2-0.4-0.2-0.4s0.1,0,0.4,0.1c0.3,0.1,0.1-0.2,0.1-0.4c-0.1-0.2,0-0.5,0-0.5s0.3,0.1,0.4,0.1c0.4,0.1,0.3-0.2,0.3-0.5
				c0-0.2,0-0.3,0-0.3l0.2,0.1c0,0.1,0.1,0.1,0.2,0.2c0.1,0.1,0.3,0.1,0.3,0c0,0,0,0,0,0c0.1-0.1,0-0.6,0.1-0.5
				c0.1,0.1,0.2,0.3,0.4,0.4c0.1,0,0.2,0,0.2-0.1c0.1-0.2,0-0.3-0.1-0.5c-0.1-0.1,0.4,0.2,0.4,0.3c0,0,0,0,0,0
				c0.1,0.1,0.2,0,0.2-0.1c0-0.1,0-0.2,0-0.3c0,0,0.1,0.1,0.1,0.1c0.1,0.1,0.2,0.4,0.2,0.4c0,0,0,0.1,0.1,0.1c0.1,0,0.2,0.1,0.2,0
				c0.1,0,0-0.5,0-0.5s0.1,0.1,0.2,0.3c0.1-0.1,0.8-1.1,0.8-1.7c0-1.6-1.3-2.1-1.3-2.1s0,0.3,0.1,0.6c0,0.3-0.1,0.7-0.1,0.7
				s-0.3-0.5-0.6-0.8c-0.3-0.3-0.9-0.5-0.9-0.5s0.1,0.5,0.2,0.7c0.1,0.2,0.2,0.6,0.2,0.6l-0.4,0l0.5,0.5c0,0-0.8,0-1.3,0
				c-0.5,0-0.8,0-0.8,0l0.2,0.4c0,0-0.4,0-0.6,0.1c-0.2,0-0.5,0.2-0.5,0.2s0.1,0.2,0.2,0.3c0.1,0.1,0.3,0.3,0.3,0.3s-0.4-0.1-0.7,0
				c-0.3,0.1-0.4,0.2-0.4,0.2s0.2,0.1,0.3,0.2c0.2,0.1,0.6,0.2,0.6,0.2s-0.5,0.2-0.7,0.2c-0.3,0-0.5,0.1-0.5,0.1s0.2,0.2,0.4,0.3
				c0.2,0.2,0.4,0.5,0.4,0.5s-0.3-0.1-0.5-0.2c-0.2-0.1-0.5-0.1-0.5-0.1s0.2,0.3,0.4,0.6c0.2,0.2,0.5,0.7,0.5,0.7s-0.2,0-0.5,0
				c-0.2,0-0.4,0-0.4,0s0.1,0.2,0.2,0.4c0.1,0.2,0.3,0.3,0.3,0.3s-0.2,0.1-0.1,0.2c0.1,0.1,0.5,0.2,0.5,0.2c0.1,0,0.2,0.2,0.3,0.3
				c0,0.1-0.1,0.5-0.1,0.5s0.2,0,0.5,0.1c0.2,0.1,0.5,0.2,0.5,0.2s-0.5-0.1-0.7-0.1c-0.2,0-0.5-0.1-0.5-0.1s0.1-0.1,0.1-0.3
				c0-0.2,0.1-0.4-0.1-0.4c-0.2,0-0.3,0-0.3,0s-0.5-0.5-0.8-0.5C504.8,11.1,504.6,11.2,504.5,11.3z M505,7.8l0.4,0.2
				c0,0-0.5,0.2-0.8,0.4c-0.3,0.2-0.4,0.4-0.4,0.4l0.8,0.4l-0.8,0.8c0,0,0.2,0.2,0.4,0.4c0.2,0.3,0.4,0.5,0.4,0.5
				c-0.1,0-0.2,0.1-0.2,0.2h0.6c0,0-0.1-0.2-0.2-0.4c-0.1-0.2-0.1-0.4-0.1-0.4s0.2-0.1,0.4-0.1c0.2,0,0.3,0,0.3,0s-0.2-0.3-0.4-0.6
				C505.2,9.4,505,9,505,9s0.2,0,0.4,0c0.2,0,0.5,0.1,0.5,0.1s-0.2-0.1-0.4-0.3c-0.2-0.2-0.3-0.3-0.3-0.3s0.2-0.2,0.4-0.2
				c0.2,0,0.7,0,0.7,0s-0.3-0.1-0.4-0.2c-0.2-0.1-0.3-0.2-0.3-0.2s0.1-0.1,0.3-0.3c0.2-0.1,0.4-0.2,0.4-0.2s-0.1-0.3-0.3-0.3
				C505.5,7.1,505,7.8,505,7.8z M506.7,4.3c0,0,0.7,0.4,0.5,0.4c-0.1,0-0.5,0.2-0.8,0.4c-0.3,0.2-0.4,0.4-0.4,0.4l0.5,0.2
				c0,0-0.3,0.1-0.6,0.3c-0.2,0.2-0.5,0.4-0.5,0.4l0.8,0.2c0,0-0.1,0.1-0.2,0.1c0.1,0,0.2,0.1,0.4,0.1c0.4,0,0.7-0.1,0.7-0.1
				l-0.2-0.4c0,0,0.6,0,1,0c0.5,0,0.9,0,0.9,0s-0.3-0.2-0.4-0.4c-0.1-0.2-0.1-0.3-0.1-0.3s0.1,0.1,0.2,0.1c0.1,0,0.3,0,0.3,0
				s-0.1-0.4-0.2-0.7c-0.1-0.2-0.3-0.3-0.4-0.3c0,0,0.1,0,0.3-0.1c0.3-0.1,0-0.3,0-0.3s0.6,0.3,1,0.5c0.4,0.3,0.6,0.4,0.6,0.4
				s0-0.2-0.1-0.4c-0.1-0.2-0.1-0.5-0.1-0.5s0.4,0,1,0.5c0.6,0.5,0.7,1.1,0.8,1.6c0.1,0.5,0.4,0.3,0.5-0.1c0.1-0.4,0.3-0.7,0.3-0.7
				s0.1,0.3,0.5-0.2l0.5-1.2c0,0-0.4,0-0.5,0.1c-0.2,0.1-0.6,0.3-0.7,0.3c-0.1-0.2-0.1-0.3-0.2-0.5c-0.1-0.2-0.2-0.4-0.4-0.6
				c-0.1,0.3-0.2,0.5-0.2,0.7c0,0,0,0,0,0c-0.2-0.2-0.5-0.8-0.8-1.2c-0.1,0.2-0.1,0.7-0.1,0.7s-0.7-0.7-0.8-0.6
				c0,0.1,0.1,0.6,0.1,0.7c-0.2-0.1-0.5-0.2-0.8-0.3c0,0-0.3-0.1-0.4-0.1c-0.1,0.1,0.2,0.6,0.2,0.6c-0.5-0.2-1.4-0.4-1.9-0.2
				L506.7,4.3z M507.6,2.4c-0.1,0-0.2,0.1-0.2,0.1s0.7,0.7,0.7,0.7c-0.2,0-0.3-0.1-0.7,0c-0.4,0.1-0.6,0.3-0.6,0.3l0.8,0.3l0,0.1
				c0,0,0.3,0,0.5,0.1c0.2,0,0.6,0.1,0.6,0.1s-0.1-0.4,0-0.4c0,0,0.3,0,0.5,0c0.3,0.1,0.6,0.2,0.6,0.2s0-0.1,0-0.6
				c0-0.2,0.8,0.4,0.8,0.4s0.1-0.1,0.1-0.4c0-0.3,0.1-0.1,0.2-0.1c0.1,0.1,0.6,0.9,0.6,0.9s0.2-0.6,0.3-0.7c0.1-0.1,0.6,1,0.6,1
				s0.2,0,0.3-0.1c0.2-0.1,0.5-0.2,0.5-0.2s-0.1-0.8-0.2-1s-0.8-0.9-0.8-0.9c-0.1,0.3-0.3,0.6-0.3,0.6c-0.1,0-0.4-0.2-0.6-0.4
				s-0.6-0.5-0.6-0.5s0,0.3,0.1,0.4c0,0.1,0.1,0.4-0.1,0.3s-0.3-0.3-0.7-0.4c-0.2-0.1-0.5-0.2-0.5-0.2s0,0.5-0.1,0.7
				c-0.1,0.1-0.1,0.1-0.2,0.1c-0.1-0.1-0.4-0.3-0.9-0.4C508,2.3,507.6,2.4,507.6,2.4z M503.1-5.1c0,0.1,0.1,0.3,0.2,0.4
				c0.1,0.4,0,0.8,0.2,1.1c0.1,0.1,0.2,0.2,0.3,0.3c0.1,0.1,0.2,0.1,0.2,0.1s-0.1-0.3,0-0.6c0-0.3-0.1-0.4-0.2-0.7
				S503.5-5,503.1-5.1z M503.4-6l0.1,0.4l0.1,0.4c0,0,0.2,0.3,0.3,0.5c0.1,0.2,0.2,0.5,0.2,0.5s0.1,0,0.2-0.3c0.1-0.3,0-0.5-0.2-0.7
				C503.9-5.5,503.6-5.8,503.4-6z M503.6-6.8c0.1,0.2,0.2,0.3,0.2,0.5c0.1,0.3,0.1,0.5,0.1,0.5l0.5,0.7c0,0,0.1-0.1,0.1-0.3
				c0-0.2,0.1-0.4,0-0.6C504.3-6.3,504.1-6.7,503.6-6.8z M504.6-7.3c-0.1-0.1-0.4-0.2-0.4-0.2s0.1,0.3,0.1,0.5
				c0.1,0.2,0.1,0.4,0.1,0.4s0.1,0.1,0.2,0.3c0.1,0.2,0.1,0.4,0.1,0.4s0.1-0.3,0.1-0.5C504.9-7,504.8-7.2,504.6-7.3z M504.5-9.1
				c-0.3-0.1-0.2-0.5-0.2-0.5S504-9.5,503.9-9c0,0.3,0.4,0.6,0.4,0.6s0.1-0.2,0.1-0.3s0.3-0.3,0.3-0.3C504.7-9,504.7-9,504.5-9.1z
				 M507.2-9.3c-0.1-0.5-0.5-0.9-0.5-0.9s0.1,0.3,0,0.6c-0.1,0.2-0.3,0.3-0.4,0.4c0,0,0.5-0.1,0.7,0.2c0,0.1,0.1,0.2,0.1,0.2
				S507.3-9,507.2-9.3z M508.3-8.7c0,0,0.3-0.3,0.3-0.6c-0.1-0.3-0.4-0.8-0.4-0.8s0,0.3,0,0.6c-0.1,0.2-0.3,0.4-0.3,0.4
				C507.9-9.1,508.1-9.1,508.3-8.7C508.3-8.7,508.3-8.7,508.3-8.7z M508.9-7.9c0.5-0.4,0.4-1.1,0.4-1.1s-0.1,0.3-0.4,0.5
				c-0.3,0.2-0.5,0.3-0.5,0.3s0.1,0.2,0.1,0.3c0,0.1-0.1,0.3-0.2,0.3C508.1-7.5,508.6-7.6,508.9-7.9z M509.4-4.4
				c-0.1-0.2-0.3-0.5-0.4-0.6c-0.1-0.2-0.2-0.3-0.2-0.3s0,0.3,0,0.5c0.1,0.4,0.4,0.8,0.4,0.9c0,0,0,0,0,0c-0.1,0.1-0.2-0.1-0.4-0.3
				c-0.4-0.5-0.9-1-0.9-0.9c0,0.1,0,0.3,0,0.4c0.1,0.4,0.3,0.6,0.1,0.6c-0.2-0.1-0.4-0.2-0.5-0.3C507.2-4.7,507-5,507-5
				c0,0.1,0,0.4,0.1,0.5c0.1,0.2,0.2,0.4,0.1,0.4c-0.1,0-0.2-0.1-0.5-0.3c-0.1-0.1-0.3-0.3-0.4-0.5c0,0.1-0.1,0.3-0.1,0.4
				c0,0.2,0.1,0.4,0,0.5c0,0-0.1,0-0.3-0.3c-0.1-0.1-0.3-0.4-0.3-0.4c0,0-0.1,0.3-0.1,0.3c0,0.3,0.2,0.6,0.2,0.6s-0.2,0-0.2,0.1
				c-0.1,0-0.1,0.2-0.3,0.1c0,0-0.3-0.9,0.6-3c0.1-0.3,0.3-0.6,0.5-0.9c0.1-0.3,0.2-0.4,0.4-0.4c0.1,0.1-0.1,0.3-0.1,0.3
				s0.3,0.2,0.6,0.2c0.3,0,0.5-0.1,0.7-0.3c0.2-0.1,0.2-0.3,0.1-0.4c-0.1-0.2-0.6,0-0.6,0c0-0.1,0.4-0.1,0.5-0.4
				c0.1-0.2,0-0.3-0.2-0.4c-0.1-0.1-0.3-0.1-0.4-0.1c-0.3,0.1-0.4,0.3-0.6,0.4c0,0,0,0,0,0c0.1-0.1,0.1-0.3,0-0.4
				c-0.2-0.2-0.4-0.2-0.6-0.1c-0.3,0.1-0.5,0.4-0.6,0.6l0,0c-0.1-0.2-0.2-0.5-0.4-0.5c-0.2,0-0.3,0.1-0.5,0.2
				c-0.2,0.2-0.2,0.4-0.1,0.6c0.1,0.2,0.2,0.4,0.4,0.4c0.1,0,0.3-0.1,0.4-0.1c0,0,0,0,0,0.1c0,0.2-0.3,0.8-0.3,1
				c-0.2,1-0.4,1.6-0.6,2.1c0,0.1,0,0.2,0,0.2c0,0,0.1,0,0.2,0.1c-0.3,0.2-0.4,0.3-0.5,0.6c0,0.2,0,0.4,0.2,0.6
				c0.2,0.1,1.1,0.3,1.2,0.3c0.6,0.1,1,0.1,1.3,0.6c0.2,0.3,0.3,0.9,0.2,1.2c-0.1,0.4-0.3,0.7-0.5,0.8s-0.4,0-0.6,0
				c-0.5-0.1-1.1-0.1-1.4,0.2c-0.7,0.6,0,1.9,0,1.9c0.2,0.5,0.5,1,0.6,1.5c0,0.4-0.1,0.7-0.5,0.9c-0.3,0.2-0.5,0.2-0.7,0
				c-0.2-0.1-0.3-0.2-0.2-0.5c0.2-0.6,0.4-0.7,0.4-1.4c-0.1-0.6-0.5-1.3-1.2-1c-0.7,0.3-0.3,1-0.2,1.2c0-0.2,0.2-0.7,0.7-0.6
				c0.4,0.1,0.4,0.5-0.1,1.1c-0.3,0.3-0.4,0.8-0.1,1.1c0.2,0.3,1,0.5,1,0.5c-0.4,0.2-0.7,0.2-0.8,0.5c-0.1,0.3,0.1,0.6,0.2,0.8
				c0.2,0.3,0.3,0.7,0,1c-0.2,0.1-0.3,0.2-0.6,0.1c-0.6-0.2-0.3-0.9-0.3-0.9c-0.8,0.5-0.2,1.3,0,1.4c0.2,0.2,0.6,0.2,0.8,0.2
				s0.5-0.2,0.7-0.5c0.3-0.6-0.1-1.2-0.4-1.6c-0.4-0.7,0.8-0.7,1.2-0.8c0.4-0.1,0.7-0.6,0.7-0.9c0.2-1.2-0.8-1.8-0.8-3
				c0-0.2,0.2-0.5,0.3-0.6c0.2-0.1,0.4-0.2,0.7-0.1c0.2,0.1,0.2,0.3,0.4,0.6c0.1,0.2,0.6,0.5,1,0.5c0.3,0,0.6,0,0.6,0s0,0.1,0.1,0.2
				c0,0.2,0.1,0.3,0.1,0.3s0.4,0.1,0.7,0.3c0.1,0,0-0.5,0.1-0.7c0.1,0,0.2,0,0.4,0.1c0.1,0.1,0.3,0.1,0.3,0.1s0-0.2-0.1-0.4
				c-0.1-0.1-0.5-0.2-0.5-0.5c-0.1-0.4,0.8-1.6,0.9-2.2C510.1-1.8,509.9-3.6,509.4-4.4z M510.6-5.9c0-0.2-0.1-0.5-0.3-0.7
				c0,0,0,0.1,0,0.3c0,0.2-0.1,0.4-0.1,0.5c-0.1,0.2,0,0.5,0,0.5s0.1-0.1,0.2-0.1s0.2-0.1,0.2-0.1S510.7-5.8,510.6-5.9z M511.3-6.1
				c0-0.2-0.1-0.3-0.3-0.5c0,0.3-0.2,0.5-0.2,0.6c0,0,0.1,0.5,0.1,0.5s0.1,0,0.2,0c0.1,0,0.1,0,0.1,0s0,0,0-0.1c0,0,0.1-0.1,0.1-0.1
				S511.3-5.9,511.3-6.1z M511.9-6.7c0-0.2-0.2-0.6-0.2-0.6s-0.1,0.4-0.2,0.6c-0.1,0.2-0.2,0.4-0.2,0.4s0,0.1,0.1,0.2
				c0,0.2,0,0.3,0,0.3l0.5-0.3C512-6.1,512-6.4,511.9-6.7z M512.6-7.2c0-0.2-0.1-0.4-0.1-0.5c-0.1,0.1-0.1,0.3-0.2,0.4
				c-0.1,0.2-0.2,0.4-0.2,0.4s0,0.1,0,0.3c0,0.2,0,0.3,0,0.3l0.6-0.5C512.7-6.8,512.6-7,512.6-7.2z M512.9-8.8
				c-0.1-0.1-0.3-0.4-0.3-0.4s-0.1,0.3,0.1,0.6c0.1,0.3,0.4,0.5,0.4,0.5c0-0.1,0-0.2,0.1-0.3c0.1-0.1,0.2-0.2,0.2-0.2
				S513.1-8.6,512.9-8.8z M515.7-9c0-0.2-0.2-0.5-0.2-0.6c-0.1-0.1,0,0.4-0.3,0.6c-0.2,0.2-0.3,0.2-0.3,0.2s0.2-0.1,0.4,0
				c0.2,0.1,0.3,0.3,0.3,0.3l0.1-0.1C515.6-8.5,515.7-8.7,515.7-9z M515.3-8c0.1-0.2-0.1-0.5-0.4-0.5c-0.2,0-0.5,0.1-0.7,0.4
				c-0.1-0.1-0.2-0.3-0.4-0.3c-0.1,0-0.3,0-0.4,0.1c-0.1,0.1-0.1,0.4,0,0.5c0.1,0.1,0.3,0.2,0.4,0.3l0,0c0,0-0.7,0.7-1.2,1.2
				c-0.5,0.5-1.2,0.8-1.1,1c0,0.1,0.1,0.2,0,0.3c-0.1,0-0.1-0.4-0.5-0.3c-0.2,0-0.6,0.1-0.6,0.4c-0.1,0.5,0.4,0.8,0.6,1.5
				c0.3,0.7,0.3,1.3-0.1,1.8c-0.2,0.3-0.7,0.5-0.7,0.5s-0.1,0.4-0.5,1.1c-0.2,0.4-0.4,0.8-0.3,1c0.1,0.2,0.3,0.4,0.3,0.4
				s1.6-0.5,2.1-0.8c0.8-0.5,1.2-1.2,1.5-1.4c0.4-0.3,1.1-0.5,1.1-0.5c0-0.1-0.2-0.3-0.6-0.3c-0.3,0-0.4,0.1-0.4,0.1
				c0,0,0.3-0.4,0.5-0.5c0.2-0.1,0.5-0.3,0.5-0.3s-0.2-0.1-0.5-0.1c-0.2,0-0.5,0.1-0.5,0.1s0.1-0.3,0.3-0.6s0.5-0.4,0.5-0.4
				s-0.2-0.1-0.6-0.1c-0.3,0-0.6,0.2-0.6,0.2s0.1-0.3,0.2-0.4c0.2-0.3,0.7-0.4,0.7-0.4S513.3-4,513.1-4c-0.2,0-0.3,0.1-0.6,0.2
				c0,0,0,0,0,0s0-0.2,0.1-0.4c0.2-0.4,0.6-0.4,0.6-0.4s-0.5-0.2-0.9-0.1c-0.2,0.1-0.4,0.2-0.6,0.6c0,0-0.1-0.1-0.1-0.3
				c-0.1-0.5,0.8-1.2,1.3-1.6c0.5-0.4,1.1-0.9,1.3-1c0.2-0.1,0.9-0.2,1.2-0.1c0.3,0.1,0.7,0.3,0.9,0c0.2-0.3,0-0.5,0-0.5
				s-0.2,0.2-0.3,0.2l0,0c0.1-0.2,0.2-0.5-0.1-0.7C515.8-8.4,515.4-8.1,515.3-8z M516.6-9.2c0,0-0.1,0.3-0.2,0.5
				c-0.2,0.2-0.3,0.3-0.3,0.3s0.1,0,0.2,0.2c0.1,0.2,0.1,0.4,0.1,0.4s0.3-0.3,0.4-0.5C516.9-8.6,516.8-9.1,516.6-9.2z M516.6-7.8
				c0,0,0,0.1,0.1,0.3c0,0.2,0,0.3,0,0.3s0.5,0,0.8-0.5c0.2-0.2,0.2-0.5,0.2-0.5S517.4-7.8,516.6-7.8z M508.3,4.8
				C508.2,4.8,508.2,4.8,508.3,4.8C508.2,4.8,508.2,4.8,508.3,4.8z M509,10.9c0.1,0.1,0,0.5-0.2,0.6c-0.4,0.1-1.1-0.8-0.9-0.8
				c0.1,0,0.1,0.1,0.3,0.3l-0.1,0c0.4,0.3,0.6,0,0.6-0.1l-0.4-0.1l-0.1,0.1c-0.1-0.1,0-0.2,0.1-0.2C508.5,10.5,509,10.8,509,10.9z
				 M508.9,10.9L508.9,10.9c-0.1,0.1-0.2,0.2-0.4,0.3c0.2,0.1,0.4,0.1,0.5,0C509,11.1,509,11,508.9,10.9z M510.3,12
				c-0.3,0-0.5-0.2-0.7-0.3c0,0,0,0.1,0,0.1C509.8,12,510,12.1,510.3,12L510.3,12L510.3,12"/>
		</g>
	</g>
	<g>
		<path class="st10" d="M428.9,225c57.9,0,90.2,34,83.9,90.2c-6.2,55.2-36,91.3-105.5,91.3H296.5L324.3,225 M408.9,263.8
			c14.2,0,22.7,2.2,29.2,7.6c10.8,8.9,15.2,25.5,12.4,43.9c-4.1,26.9-15.5,51.4-53.7,51.4h-33.1l15.7-102.8
			C379.4,263.8,408.9,263.8,408.9,263.8z"/>
		<path class="st11" d="M609.9,225l-15.6,101.8c-3.5,22.8,9.1,39.7,33.4,39.7c20.7,0,38.2-13.9,42.1-39.7L685.4,225h61.2L732,320.7
			c-8.1,52.7-37.5,89-108.7,89c-47.3,0-73.6-17.1-84.9-39.2c-8.5-16.5-8.9-35.9-6.4-52.2l14.3-93.3"/>
		<path class="st11" d="M280.1,358.2c-9.1,2.8-30.1,5.2-50.9,5.2c-47,0-63.3-22.1-61.6-48.2c1.9-29.1,27-49.6,75.8-49.6
			c19.7,0,40.7,5,45.8,6.6l6.6-42.7c-9.1-2.5-34.8-7.7-70.2-7.7c-86.8,0-116.4,48-122.1,83.1c-7.9,49.4,23.5,104.7,107.2,104.7
			c26.6,0,53.9-3.9,62.7-8"/>
	</g>
</g>
</svg>
