<?xml version="1.0" encoding="utf-8"?>
<!-- Generator: Adobe Illustrator 23.0.1, SVG Export Plug-In . SVG Version: 6.00 Build 0)  -->
<svg version="1.1"
	 id="svg2" xmlns:cc="http://creativecommons.org/ns#" xmlns:dc="http://purl.org/dc/elements/1.1/" xmlns:inkscape="http://www.inkscape.org/namespaces/inkscape" xmlns:rdf="http://www.w3.org/1999/02/22-rdf-syntax-ns#" xmlns:sodipodi="http://sodipodi.sourceforge.net/DTD/sodipodi-0.dtd" xmlns:svg="http://www.w3.org/2000/svg"
	 xmlns="http://www.w3.org/2000/svg" xmlns:xlink="http://www.w3.org/1999/xlink" x="0px" y="0px" viewBox="0 0 850.4 850.4"
	 style="enable-background:new 0 0 850.4 850.4;" xml:space="preserve">
<style type="text/css">
	.st0{fill:#FFED00;}
	.st1{fill:#E5017D;}
	.st2{fill:#039FE1;}
	.st3{fill:#FEFBFD;}
</style>
<path class="st0" d="M850.4,425.2c0,234.8-190.4,425.2-425.2,425.2S0,660,0,425.2S190.4,0,425.2,0S850.4,190.4,850.4,425.2z"/>
<sodipodi:namedview  bordercolor="#666666" borderopacity="1.0" fit-margin-bottom="0" fit-margin-left="0" fit-margin-right="0" fit-margin-top="0" id="base" inkscape:current-layer="layer1" inkscape:cx="247.9485" inkscape:cy="441.95185" inkscape:document-units="px" inkscape:pageopacity="0.0" inkscape:pageshadow="2" inkscape:window-height="705" inkscape:window-maximized="1" inkscape:window-width="1366" inkscape:window-x="-8" inkscape:window-y="-8" inkscape:zoom="0.35" pagecolor="#ffffff" showgrid="false">
	</sodipodi:namedview>
<g>
	<path class="st1" d="M557,572.2c-67.5,0-135,0-202.5,0c-3.2,0-2.8,0.3-2.8-2.9c0-28,0-56,0-84.1c0-0.4,0-0.9,0-1.3
		c-0.1-1.2,0.4-1.7,1.6-1.6c0.6,0.1,1.1,0,1.7,0c134.9,0,269.8,0,404.7,0c3.3,0,3.3,0,3.3,3.3c0,27.8,0,55.6,0,83.4c0,0.5,0,1,0,1.5
		c0.1,1.2-0.4,1.7-1.6,1.6c-0.6-0.1-1.1,0-1.7,0C692,572.2,624.5,572.2,557,572.2z M638.2,553.3c0.7,0.4,1.4,0.2,2,0.2
		c7.7,0,15.4,0,23.1,0c9.8,0,17.3-5.2,20.8-14.3c2.7-6.9,3-14.1,1.4-21.2c-2.2-10.2-9.1-15.9-19.5-16.8c-6.1-0.5-12.1-0.1-18.2-0.2
		c-2.8,0-5.6,0-8.3,0c-0.8,0-1.4,0.1-1.4,1.1c0,1.9,0,3.7,0,5.6c0,0.9,0.5,1.1,1.2,1.1c0.9,0,1.9,0.1,2.8,0c1.4-0.1,1.7,0.5,1.7,1.7
		c-0.1,4.5,0,9,0,13.5c0,6.6,0,13.1,0,19.7c0,2.2,0,2.2-2.2,2.3c-1.1,0-2.2-0.1-3.4,0.2C638.2,548.6,638.2,551,638.2,553.3z
		 M709.7,501c-4.5,0-8.5,0-12.6,0c-1.1,0-1.5,0.3-1.5,1.4c0.1,1.7,0,3.4,0,5.1c0,0.8,0.3,1.2,1.1,1.2c0.9,0,1.7,0,2.6,0
		c1-0.1,1.6,0.3,1.5,1.4c-0.1,0.5,0,1,0,1.5c0,10.3,0,20.5,0,30.8c0,3.4,0,3.4-3.3,3.4c-0.2,0-0.4,0-0.6,0c-0.9-0.1-1.3,0.3-1.2,1.2
		c0,1.6,0.1,3.3,0,4.9c-0.1,1.2,0.4,1.6,1.6,1.6c6.1-0.1,12.1,0,18.2,0c0.1,0,0.3,0,0.4,0c0.9,0.1,1.3-0.3,1.2-1.3c0-1,0-2,0-3
		c0-3.4,0-3.4-3.3-3.5c-0.1,0-0.3,0-0.4,0c-1.1,0.1-1.5-0.3-1.5-1.4c0.1-3.2,0.1-6.4,0-9.6c0-1.1,0.4-1.5,1.5-1.4
		c2.3,0.1,4.6,0.1,6.8,0c8.3-0.3,14.4-5.2,16-12.8c0.6-2.6,0.5-5.3,0-7.9c-0.9-4.7-3.6-7.9-8.1-9.8c-2.1-0.9-4.3-1.4-6.6-1.6
		C717.4,500.9,713.3,501.1,709.7,501z M608.3,501c-4.9,0-9.8,0-14.8,0c-1.3,0-2.9-0.5-3.7,0.3c-1,0.9-0.3,2.6-0.3,3.9
		c-0.1,3.4,0,3.4,3.5,3.5c2.1,0,2.1,0,2.1,2.1c0,10.6,0,21.2,0,31.9c0,3.2,0,3.2-3.1,3.3c-0.1,0-0.3,0-0.4,0
		c-0.8-0.1-1.2,0.2-1.2,1.1c0,1.9,0,3.7,0,5.6c0,0.9,0.5,1,1.2,1c6.3,0,12.7,0,19,0c1,0,1.2-0.4,1.2-1.3c0-1.6-0.1-3.3,0-4.9
		c0-1.1-0.3-1.6-1.4-1.5c-1,0.1-2-0.1-3,0c-1.2,0.1-1.5-0.4-1.4-1.5c0-3.6,0-7.1,0-10.7c0-2.1,0-2.1,2.1-2.1c4,0,8-0.1,12,0
		c1.3,0,1.8-0.4,1.7-1.7c-0.1-1.6,0-3.1,0-4.7c0-1.7,0-1.7-1.8-1.7c-4.1,0-8.3,0-12.4,0c-1.1,0-1.5-0.3-1.5-1.4c0-4,0-8,0-12
		c0-1.1,0.3-1.5,1.5-1.5c2.8,0.1,5.7,0,8.6,0c1.9,0,2.3-0.4,2.1,2c-0.1,1.2,0.4,1.6,1.6,1.6c2-0.1,4-0.1,6,0c1.1,0,1.5-0.4,1.5-1.5
		c-0.1-2.6,0-5.3,0-7.9c0-1.8,0-1.8-1.9-1.8C619.6,501,614,501,608.3,501z"/>
	<path class="st2" d="M337.5,450.9c0,3.5,0,7,0,10.5c0,0.7-0.3,1.1-1,1c-0.3,0-0.6,0-0.9,0c-8.3,0-16.7,0-25,0c-1.7,0-1.8,0-1.8-1.7
		c0-3.2,0-6.4,0-9.7c1.5-0.5,3-0.2,4.5-0.2c1,0,1.4-0.4,1.4-1.4c-0.1-8.1-0.1-16.3-0.1-24.4c0-0.5-0.1-1-0.1-1.5
		c-0.9-6.5-5.5-8.9-11.5-8.3c-4.4,0.4-7.5,2.9-9.4,6.8c-1,2.1-1.7,4.4-1.7,6.8c-0.1,7.1-0.1,14.1-0.1,21.2c0,0.2,0.1,0.4,0.2,0.8
		c2.1,0,4.2,0,6.6,0c0,2.5,0,4.8,0,7.1c0,1.5,0.6,3.3-0.4,4.3c-0.9,0.9-2.7,0.3-4.1,0.3c-7.4,0-14.8,0-22.2,0c-1.9,0-1.9,0-1.9-1.8
		c0-3.2,0-6.4,0-9.7c1.6-0.4,3.1-0.2,4.5-0.2c0.9,0,1.2-0.3,1.2-1.2c0-8.4,0.1-16.8-0.1-25.2c-0.1-5.3-3.2-8.3-8.4-9.1
		c-5.4-0.8-10.1,1.8-12.5,6.6c-1,2-1.7,4.1-1.7,6.4c-0.1,7.4,0,14.8,0,22.4c2.2,0.4,4.4,0,6.8,0.3c0,3.6,0,7.1,0,10.6
		c0,0.8-0.5,0.9-1.1,0.9c-1.9,0-3.7,0-5.6,0c-6.9,0-13.8,0-20.7,0c-2,0-2,0-2-2c0-2.6,0-5.3,0-7.9c0-1.8,0-1.8,1.9-1.8
		c1.4,0,2.8,0,4.4,0c0-12.1,0-24,0-36.1c-0.7-0.3-1.4-0.1-2.2-0.2c-1.7-0.1-3.9,0.7-5-0.3c-1.2-1.2-0.3-3.4-0.4-5.1
		c-0.1-1.6,0-3.3,0-4.9c0-1,0.4-1.4,1.4-1.4c6.9,0,13.8,0,20.7,0c1.1,0,1.3,0.4,1.3,1.4c0,3.3-0.2,6.5-0.7,10.1
		c1.3-2.4,2.5-4.5,4.1-6.2c5.3-5.6,12-7.1,19.3-6.5c1.3,0.1,2.5,0.4,3.8,0.7c5.2,1.4,8.6,4.8,10.3,9.9c0.2,0.7,0.4,1.5,0.6,2.2
		c0.5-0.1,0.6-0.4,0.7-0.8c3.2-7.8,9.4-11.5,17.6-12.1c2.9-0.2,5.7,0,8.5,0.7c7.5,1.9,11.6,7.1,13.2,14.4c0.6,2.7,0.9,5.5,0.9,8.3
		c0,7.8,0,15.7,0,23.5c0,2.6-0.4,2.3,2.4,2.4C334.5,450.7,335.9,450.5,337.5,450.9z"/>
	<path class="st2" d="M87.3,450.6c3,0,5.6,0,8.4,0c0-18.9,0-37.6,0-56.5c-2.8,0-5.5,0-8.3,0c-0.3-2.8-0.1-5.4-0.1-8
		c0-3.7,0-3.7,3.7-3.7c11.5,0,22.9,0,34.4,0c4.2,0,8.4,0.5,12.4,1.8c10.3,3.1,17.3,9.8,20.5,20.1c3.8,12.5,3.5,25-1.4,37
		c-5.6,13.6-16.1,20.7-30.9,20.9c-12.3,0.2-24.7,0-37,0.1c-1.2,0-1.8-0.2-1.8-1.6C87.4,457.5,87.3,454.2,87.3,450.6z M112.6,422.4
		c0,8.8,0,17.7,0,26.5c0,1.2,0.2,1.8,1.6,1.8c3.6-0.1,7.3,0.1,10.9-0.2c6.4-0.6,11.1-3.6,14-9.4c0.9-1.9,1.6-3.8,2.1-5.8
		c1.7-7,1.7-14.1,1.1-21.2c-0.3-3.3-1-6.6-2.4-9.7c-2.3-5.2-6.2-8.4-11.8-9.5c-4.4-0.9-8.9-0.5-13.4-0.6c-2,0-2.1,0-2.1,2.1
		C112.5,405,112.6,413.7,112.6,422.4z"/>
	<path class="st2" d="M429.4,428c6.1-4.6,11.7-8.9,17.5-13.4c-1.4-0.5-2.8-0.2-4.1-0.2c-3.4-0.1-3.4,0-3.4-3.4c0-2.3,0-4.6,0-6.8
		c0-1.1,0.3-1.5,1.4-1.5c9.2,0,18.4,0,27.6,0c1,0,1.4,0.2,1.4,1.3c-0.1,3.1-0.1,6.1,0,9.2c0,1.1-0.5,1.4-1.4,1.3
		c-3-0.5-5.1,0.8-7.3,2.7c-4.4,3.7-8.9,7.1-13.3,10.7c-0.5,0.4-1.2,0.8-1.6,1.6c3,3.3,6,6.6,9.1,9.8c3.1,3.4,6.3,6.8,9.4,10.2
		c0.8,0.9,1.7,1.4,2.9,1.3c1.2-0.1,2.4,0,3.6,0c0.9,0,1.3,0.2,1.3,1.2c0,3.1,0,6.3,0,9.4c0,0.8-0.3,1.2-1.1,1.1c-0.5,0-1,0-1.5,0
		c-8.8,0-17.7,0-26.5,0c-0.8,0-1.6,0-2.4,0c0-3.9,0-7.6,0-11.5c1.8-0.4,3.6,0.1,5.7-0.3c-6.4-5.4-11.2-12-16.9-17.8
		c-0.5,1.3-0.6,15.2-0.1,18c1.3,0,2.7,0,4,0c0.9,0,1.3,0.3,1.3,1.2c0,3.1-0.1,6.1,0,9.2c0,1.1-0.5,1.3-1.4,1.3c-8.4,0-16.8,0-25.2,0
		c-1.2,0-1.4-0.5-1.4-1.5c0-2.9,0.1-5.8,0-8.8c0-1.1,0.4-1.5,1.5-1.4c0.5,0,1,0,1.5,0c3.5,0,3.5,0,3.5-3.6c0-19.2,0-38.5,0-57.7
		c0-0.4,0-0.9,0-1.3c0.2-1.3-0.3-1.8-1.6-1.7c-2.1,0.1-4.1,0-6.2,0c-0.9,0-1.3-0.2-1.3-1.2c0-3.1,0-6.1,0-9.2c0-0.9,0.3-1.3,1.2-1.3
		c7.6,0,15.1,0,22.7,0c1.3,0,1.3,0.7,1.3,1.6c0,5.6,0,11.1,0,16.7c0,10.8,0,21.5,0,32.3C429.4,426,429.4,426.8,429.4,428z"/>
	<path class="st2" d="M733.5,462.4c0-2.6-0.1-5.1,0-7.6c0-1.3-0.6-3,0.4-3.9c0.9-0.8,2.5-0.2,3.7-0.2c0.2,0,0.4,0,0.6,0
		c1.8,0,1.8,0,1.8-1.8c0-7.6,0-15.1,0-22.7c0-1.3-0.2-2.6-0.4-3.8c-0.9-4.5-4-7-9-7.4c-7.5-0.6-13,3.7-14.4,11.1
		c-0.3,1.5-0.5,2.9-0.5,4.5c0,6.1,0,12.1,0,18.2c0,1.9,0,1.9,2,1.9c1.6,0,3.1-0.2,4.8,0.2c0,3.5,0,7,0,10.5c0,0.7-0.3,1.1-1,1
		c-0.4,0-0.7,0-1.1,0c-8.2,0-16.4,0-24.6,0c-2,0-2,0-2-2c0-2.6,0-5.3,0-7.9c0-1.8,0-1.8,1.9-1.8c0.2,0,0.4,0,0.6,0
		c3.3,0,3.3,0,3.3-3.2c0-10.3,0-20.5,0-30.8c0-2.4,0.3-2.3-2.3-2.3c-1.4,0-2.9,0-4.3,0c-0.8,0-1.1-0.3-1.1-1.1c0-3.1,0-6.3,0-9.4
		c0-0.9,0.4-1.2,1.3-1.2c6.9,0,13.8,0,20.7,0c1.3,0,1.4,0.6,1.3,1.6c-0.1,3.1,0,6.3-0.6,9.4c0.6,0.1,0.6-0.4,0.8-0.6
		c4.4-8.7,13.1-12.4,22.5-11.6c1,0.1,2,0.2,3,0.4c7,1.5,11.5,5.7,13.6,12.5c1,3.3,1.4,6.7,1.4,10.1c0,7.9,0,15.8,0,23.7
		c0,2.6-0.4,2.5,2.6,2.5c0.9,0,1.9,0,2.8,0c1-0.1,1.6,0.2,1.5,1.4c-0.1,3-0.1,6,0,9c0,1-0.3,1.4-1.3,1.4c-1.1-0.1-2.3,0-3.4,0
		c-7.3,0-14.7,0-22,0C735.3,462.4,734.5,462.4,733.5,462.4z"/>
	<path class="st2" d="M131.3,299.6c0-1.6,0-2.8,0-4.1c0-0.8-0.1-1.3-1.1-1.3c-5.5,0-11,0-16.5,0c-1,0-1.2,0.4-1.2,1.3
		c0,6.7,0.1,13.4,0,20.1c0,1.4,0.7,1.4,1.7,1.4c6.8,0,13.5,0,20.3,0c2.5,0,2.2-0.2,2.3,2.3c0,2.6,0,5.1,0,7.7c0,2.5,0.3,2.3-2.3,2.3
		c-6.6,0-13.1,0-19.7,0c-2.7,0-2.3-0.2-2.3,2.4c0,5.9,0,11.8,0,17.7c0,1.7,0,1.8,1.7,1.8c1.9,0,3.9,0,5.8,0c1,0,1.6,0.2,1.5,1.4
		c-0.1,3-0.1,6,0,9c0,1.2-0.5,1.4-1.5,1.4c-9.9,0-19.8,0-29.7,0c-1.3,0-1.7-0.4-1.7-1.7c0.1-2.8,0-5.6,0-8.3c0-1.7,0-1.7,1.8-1.7
		c1.7,0,3.4,0,5.1,0c0.4-1.8,0.4-54.7,0-57.1c-2.2,0-4.5-0.1-6.8,0c-1.2,0-1.6-0.3-1.6-1.6c0.1-2.8,0.1-5.7,0-8.6
		c-0.1-1.4,0.5-1.7,1.7-1.6c5.1,0.1,10.3,0,15.4,0c12.6,0,25.2,0,37.8,0c0.5,0,1,0,1.5,0c1.1-0.1,1.3,0.4,1.3,1.4
		c0,4.8,0,9.6,0,14.3c0,0.8,0,1.4-1,1.4C139.9,299.6,135.7,299.6,131.3,299.6z"/>
	<path class="st2" d="M402.4,432.5c0,3.9-0.4,7.8-1.6,11.6c-3.4,10-10.3,16.2-20.5,18.6c-6.8,1.6-13.6,1.3-20.3-0.7
		c-8.5-2.6-14.4-8-16.9-16.6c-2.9-9.8-2.7-19.6,2.2-28.8c4.6-8.8,12-13.6,21.8-15c4.8-0.7,9.5-0.4,14.2,0.6
		c10.9,2.4,17.5,9.3,20,20.1C402,425.7,402.3,429.1,402.4,432.5z M385,433.1c-0.1-3.9-0.3-7.7-1.6-11.4c-0.9-2.5-2.4-4.6-4.7-5.9
		c-7-4-15.5-0.9-18.4,6.6c-1,2.7-1.4,5.5-1.6,8.4c-0.3,4.1-0.1,8.1,1.3,12c1.6,4.6,4.9,7.2,9.8,7.6c1.1,0.1,2.3,0.1,3.4,0
		c5.5-0.3,9-3,10.6-8.3C384.8,439.3,385,436.2,385,433.1z"/>
	<path class="st2" d="M530,422.6c0-4.9,0-9.4,0-14c0-1.1,0.5-1.5,1.3-1.9c4.1-2,8.4-3.5,12.9-4.4c6.4-1.3,12.7-1.4,19.1-0.2
		c9.3,1.9,14.7,8,15.6,17.6c0.6,6.9,0,13.8,0,20.7c0,2.8-0.2,5.7-0.3,8.5c0,1.6,0,1.6,1.6,1.7c1.6,0,3.3,0,5.1,0c0,3.7,0,7.3,0,10.8
		c0,0.6-0.3,0.9-0.9,0.9c-1.1,0-2.3,0-3.4,0c-4.6,0-9.3,0-13.9,0c-1.8,0-1.8,0-1.8-1.9c0-2.9-0.1-5.8,0.6-9.1c-1,1-1.3,2-1.8,2.8
		c-2.5,4.4-5.8,7.7-10.9,8.9c-5.1,1.1-10.2,0.9-15.1-0.9c-12.5-4.5-14-20.7-5.2-28.4c3.8-3.3,8.4-4.7,13.2-5.5
		c5.4-0.9,10.8-1,16.2-1c1.9,0,1.9,0,1.9-1.8c0-2.1,0-4.3-0.5-6.4c-0.8-3.2-2.7-5.1-5.9-5.7c-4.4-0.8-8.7-0.1-12.9,1.1
		c-0.8,0.2-1,0.6-1,1.4c0,1.9,0,3.8,0,5.8c0,0.8-0.3,1.1-1.1,1.1C538.5,422.6,534.3,422.6,530,422.6z M558.4,437.1
		c-4,0.1-7.5,0.2-10.9,1.5c-3,1.1-4.3,3.1-4.4,6.1c0,3,1.5,5.4,4.3,6.5c4.8,1.9,12,0.8,14.9-5.9c0.9-2.2,1.2-4.5,1.5-6.9
		c0.1-1-0.2-1.4-1.3-1.4C561,437.1,559.5,437.1,558.4,437.1z"/>
	<path class="st2" d="M212.6,335.3c-0.2,3.8,0.2,7.3,1.4,10.7c1.8,4.9,5.6,7.6,10.7,7.6c5.7-0.1,9.7-2.6,11.2-7.5
		c0.1-0.3,0.2-0.5,0.4-0.8c5.3,0,10.5,0,15.9,0c0.1,1.5-0.4,2.7-0.9,3.9c-3.2,7.7-9.1,12.2-17.1,14.2c-6.8,1.7-13.7,1.5-20.5-0.4
		c-7.7-2.2-13.1-7.1-15.7-14.7c-3.1-9.1-3.5-18.5-0.5-27.7c3.7-11.1,13-18,24.7-18.5c3.7-0.2,7.3,0.1,10.8,0.9
		c10,2.4,16,8.8,18.4,18.7c1,3.9,1.4,7.9,1.3,11.9c0,1.7,0,1.8-1.8,1.8c-12,0-24,0-35.9,0C214.4,335.3,213.6,335.3,212.6,335.3z
		 M236.4,325.3c-0.1-7.3-4.5-12.2-10.9-12.4c-7-0.2-11.8,4.7-12.2,12.4C221,325.3,228.7,325.3,236.4,325.3z"/>
	<path class="st2" d="M224.8,434.6c-13.6,0-26.9,0-40.4,0c0,4.4,0.3,8.6,2.3,12.4c2.2,4.2,5.9,6.1,10.6,5.9
		c4.9-0.2,8.7-2.2,10.4-7.1c0.3-0.8,0.4-1.4,1.5-1.4c4.9,0.1,9.8,0,14.7,0c0.4,0.7,0.2,1.3,0,1.9c-2.1,7.5-7.1,12.4-14.2,15.2
		c-5.6,2.2-11.4,2.5-17.3,2c-2.3-0.2-4.5-0.6-6.7-1.2c-8.3-2.4-13.7-7.9-16.3-16.1c-2.4-7.8-2.7-15.7-0.8-23.7
		c2.3-9.9,10.3-20.6,25.7-21.2c3.9-0.2,7.7,0.2,11.4,1.2c8.2,2.2,13.9,7.3,16.7,15.4C224.4,423.2,224.9,428.7,224.8,434.6z
		 M185.3,424.6c7.7,0,15.3,0,23,0c0.2-7.3-4.7-12.5-11.6-12.4C190.1,412.4,185,417.9,185.3,424.6z"/>
	<path class="st2" d="M350.8,345.2c0.1,1.9-0.5,3.3-1.2,4.8c-3,6.8-8.4,11.1-15.5,13.1c-7.6,2.1-15.2,2-22.8-0.4
		c-7-2.2-12-6.9-14.5-13.8c-3.3-9.1-3.7-18.4-0.9-27.7c3.5-11.4,12.8-18.5,24.7-19.1c3.8-0.2,7.6,0,11.2,1
		c10.2,2.5,16.1,9.2,18.4,19.2c0.8,3.6,1.1,7.3,1.2,11c0.1,2,0,2-2,2c-12,0-24,0-35.9,0c-0.5,0-1,0-1.5,0c-0.9-0.1-1.1,0.4-1.1,1.2
		c0.2,3.5,0.4,7,1.8,10.3c3.1,7.2,13.1,9.3,18.8,4c1.3-1.2,2.2-2.6,2.7-4.3c0.2-0.8,0.5-1.2,1.4-1.2
		C340.8,345.2,345.7,345.2,350.8,345.2z M334.9,325.4c0.2-7.3-4.5-12.4-11.3-12.4c-6.7,0-12,5.6-11.6,12.4
		C319.6,325.4,327.2,325.4,334.9,325.4z"/>
	<path class="st2" d="M646.9,434.5c0,4.3,0.3,8.2,2,11.9c1.9,4.3,5.9,6.7,10.6,6.5c5.5-0.2,9-2.6,10.7-7.3c0.1-0.3,0.2-0.7,0.4-1
		c5.3,0,10.7,0,16.1,0c-0.1,2.3-0.9,4.3-2,6.1c-3.3,6.1-8.4,9.8-14.9,11.6c-7.2,2-14.4,1.9-21.5-0.1c-8.8-2.4-14.2-8.4-16.6-17.1
		c-2-7.3-2.2-14.8-0.6-22.2c2.8-12.8,12.7-21,25.7-21.7c3.6-0.2,7.1,0.1,10.6,0.9c9.8,2.3,15.9,8.5,18.4,18.2
		c1.1,4.2,1.4,8.6,1.5,12.9c0,0.9-0.3,1.3-1.2,1.3c-1.5-0.1-3,0-4.5,0c-10.7,0-21.4,0-32.1,0C648.7,434.5,647.9,434.5,646.9,434.5z
		 M647.7,424.6c7.7,0,15.3,0,23,0c0.1-7.4-4.7-12.5-11.6-12.4C652.5,412.4,647.4,417.9,647.7,424.6z"/>
	<path class="st2" d="M594.2,390.4c5.3-0.3,10.5-0.6,15.6-0.9c0.6,0.6,0.4,1.2,0.4,1.7c0,3.1,0,6.3,0,9.4c0,2,0,2,1.9,2
		c3.2,0,6.4,0,9.6,0c1.7,0,1.7,0,1.8,1.8c0,2.7,0,5.4,0,8.1c0,1.8,0,1.8-1.9,1.8c-3.3,0-6.6,0.1-9.8,0c-1.2,0-1.6,0.4-1.6,1.6
		c0,8.5,0,17,0,25.5c0,1.8,0.2,3.6,0.7,5.3c0.6,2.4,2.1,3.8,4.5,4.3c2.6,0.5,5.1,0.4,7.6-0.4c1-0.3,1.9-0.9,3.2-0.9
		c0,3.5,0,6.8,0,10.2c0,0.7-0.4,1-1,1.2c-6.4,2.2-12.9,3.5-19.7,1.8c-7.1-1.8-11.1-6.5-11.3-13.9c-0.1-5,0-10,0-15c0-6,0-12,0-18
		c0-1.3-0.3-1.8-1.6-1.7c-1.8,0.1-3.6,0-5.3,0c-0.8,0-1.1-0.3-1.1-1.1c0-3.1,0-6.3,0-9.4c0-1,0.4-1.2,1.3-1.2c1.6,0,3.1,0,4.7,0
		c2.1,0,2.1,0,2.1-2C594.2,397.3,594.2,393.9,594.2,390.4z"/>
	<path class="st2" d="M191,317c-1.5-0.3-3.1-0.5-4.8-0.5c-8.3,0-14.3,5.4-14.7,13.8c-0.3,6.9-0.1,13.8-0.1,21.1c1.8,0,3.6,0,5.4,0
		c1.9,0,1.9,0,2,2c0,2.6,0,5.3,0,7.9c0,1.9,0,1.9-1.8,1.9c-5.6,0-11.1,0-16.7,0c-3.3,0-6.7,0-10,0c-1.1,0-1.5-0.3-1.5-1.4
		c0.1-3,0.1-6,0-9c0-1.2,0.5-1.4,1.5-1.4c1.6,0.1,3.1,0,4.8,0c0-12,0-24,0-36c-1.9-0.3-3.9-0.1-5.8-0.2c-1.7-0.1-1.7,0-1.7-1.8
		c0-2.9,0-5.7,0-8.6c0-1.1,0.4-1.5,1.5-1.5c6.8,0,13.5,0,20.3,0c1.2,0,1.4,0.5,1.4,1.5c-0.1,2.2,0,4.4-0.3,6.6
		c-0.1,0.9-0.2,1.9-0.3,3.1c0.9-0.6,1-1.4,1.2-2c3.7-9.4,11.9-11.6,19.8-10.1c0.7,0.1,1.2,0.4,1.1,1.2c-0.4,4.3-0.7,8.5-1,12.8
		C191.3,316.6,191.1,316.7,191,317z"/>
	<path class="st2" d="M510.4,450.6c0,3.7,0,7.1,0,10.5c0,1.4-0.9,1.2-1.7,1.2c-8.1,0-16.1,0-24.2,0c-1.3,0-2.9,0.5-3.7-0.2
		c-1-0.9-0.3-2.5-0.4-3.9c-0.1-1.7,0-3.4,0-5.1c0-2.7-0.4-2.4,2.6-2.5c1.1,0,2.1,0,3.2,0c0.1,0,0.3-0.1,0.5-0.2
		c0-11.9,0-23.8,0-35.9c-1.9-0.3-3.9-0.1-5.9-0.2c-1.7-0.1-1.7,0-1.7-1.8c0-2.9,0-5.7,0-8.6c0-0.8,0-1.4,1.1-1.4
		c7.3,0,14.5,0,21.9,0c0.5,3.6-0.3,7.1-0.3,10.7c0.8-0.4,0.9-1.1,1.1-1.7c3.7-9.2,11.7-11.5,19.6-10c0.8,0.2,1.3,0.4,1.2,1.4
		c-0.3,4.3-0.6,8.6-0.9,12.9c-0.7,0.4-1.3,0.1-1.8,0c-2.1-0.3-4.3-0.4-6.4,0c-6.4,1.2-10.7,5.9-11.5,12.4c-0.4,3.3-0.2,6.7-0.3,10
		c0,3.6,0,7.1,0,10.7c0,1.2,0.3,1.7,1.6,1.6C506.3,450.6,508.2,450.6,510.4,450.6z"/>
	<path class="st2" d="M260.1,363c0-3.9,0-7.6,0-11.5c2.1-0.4,4.1,0,6.1-0.3c0.5-0.6,0.3-1.3,0.3-1.9c0-10.7,0-21.4,0-32.1
		c0-2.2,0.3-2.1-2-2.1c-1.5,0-3,0-4.5,0c-0.9,0-1.2-0.4-1.2-1.3c0-3.1,0.1-6.1,0-9.2c0-1.2,0.5-1.4,1.5-1.4c3.9,0,7.8,0,11.8,0
		c2.8,0,5.7,0,8.5,0c1.9,0,1.9,0,1.9,1.9c0,7.1,0,14.1,0,21.2c0,7.6,0,15.2,0,22.9c0,2.1,0,2.1,2.1,2.1c1.2,0,2.4,0,3.6,0
		c0.8,0,1.1,0.4,1.1,1.1c0,3.2,0,6.4,0,9.6c0,0.7-0.3,1.1-1,1c-0.2,0-0.4,0-0.6,0c-8.9,0-17.8,0-26.7,0
		C260.8,363.1,260.6,363,260.1,363z"/>
	<path class="st2" d="M265.7,278.4c5.3,0,10.5,0,15.6,0c0.5,0.4,0.3,0.9,0.3,1.4c0,4.3,0,8.5,0,12.8c0,1.2-0.2,1.8-1.6,1.8
		c-4.3-0.1-8.7,0-13,0c-0.8,0-1.4,0-1.4-1.1C265.7,288.3,265.7,283.4,265.7,278.4z"/>
	<path class="st3" d="M638.2,553.3c0-2.3,0-4.7,0-7.3c1.1-0.3,2.3-0.1,3.4-0.2c2.2,0,2.2,0,2.2-2.3c0-6.6,0-13.1,0-19.7
		c0-4.5,0-9,0-13.5c0-1.3-0.3-1.9-1.7-1.7c-0.9,0.1-1.9,0-2.8,0c-0.8,0-1.2-0.2-1.2-1.1c0-1.9,0-3.7,0-5.6c0-1,0.6-1.1,1.4-1.1
		c2.8,0,5.6,0,8.3,0c6.1,0.1,12.1-0.3,18.2,0.2c10.4,0.9,17.2,6.6,19.5,16.8c1.6,7.2,1.3,14.3-1.4,21.2c-3.5,9.1-11,14.2-20.8,14.3
		c-7.7,0-15.4,0-23.1,0C639.6,553.6,638.9,553.7,638.2,553.3z M654.6,527.3c0,5.6,0,11.3,0,16.9c0,1.3,0.3,1.8,1.7,1.7
		c1.7-0.1,3.4,0,5.1,0c6-0.1,9.7-2.8,11.6-8.5c1.1-3.3,1.4-6.7,1.4-10.1c0-3.7-0.1-7.4-1.5-10.9c-1.6-4.3-4.8-6.8-9.4-7.3
		c-2.3-0.3-4.7-0.2-7-0.2c-1.9,0-1.9,0-1.9,1.9C654.6,516.2,654.6,521.7,654.6,527.3z"/>
	<path class="st3" d="M709.7,501c3.6,0,7.7-0.1,11.8,0.3c2.3,0.2,4.5,0.7,6.6,1.6c4.4,1.8,7.1,5.1,8.1,9.8c0.5,2.6,0.5,5.3,0,7.9
		c-1.6,7.6-7.7,12.5-16,12.8c-2.3,0.1-4.6,0.1-6.8,0c-1.1,0-1.5,0.3-1.5,1.4c0.1,3.2,0.1,6.4,0,9.6c0,1.1,0.4,1.6,1.5,1.4
		c0.1,0,0.3,0,0.4,0c3.3,0,3.3,0,3.3,3.5c0,1,0,2,0,3c0,0.9-0.3,1.3-1.2,1.3c-0.1,0-0.3,0-0.4,0c-6.1,0-12.1,0-18.2,0
		c-1.2,0-1.6-0.4-1.6-1.6c0.1-1.6,0.1-3.3,0-4.9c0-0.9,0.3-1.3,1.2-1.2c0.2,0,0.4,0,0.6,0c3.3,0,3.3,0,3.3-3.4c0-10.3,0-20.5,0-30.8
		c0-0.5,0-1,0-1.5c0.1-1.2-0.5-1.5-1.5-1.4c-0.9,0.1-1.7,0-2.6,0c-0.8,0-1.1-0.3-1.1-1.2c0-1.7,0.1-3.4,0-5.1c0-1.1,0.4-1.5,1.5-1.4
		C701.1,501.1,705.2,501,709.7,501z M711.8,517.2c0,2.4,0,4.8,0,7.3c0,0.9,0.3,1.3,1.2,1.3c1.9-0.1,3.9,0.1,5.8-0.1
		c3.1-0.3,5.5-1.7,6.6-4.9c0.6-1.9,0.8-3.9,0.3-5.9c-0.8-3.3-2.8-5.3-6.2-5.9c-2.1-0.3-4.1-0.1-6.2-0.3c-1.3-0.1-1.6,0.5-1.5,1.6
		C711.8,512.6,711.8,514.9,711.8,517.2z"/>
	<path class="st3" d="M608.3,501c5.6,0,11.3,0,16.9,0c1.9,0,1.9,0,1.9,1.8c0,2.6,0,5.3,0,7.9c0,1.1-0.4,1.5-1.5,1.5
		c-2-0.1-4-0.1-6,0c-1.2,0-1.7-0.3-1.6-1.6c0.2-2.4-0.3-2-2.1-2c-2.9,0-5.7,0-8.6,0c-1.1,0-1.5,0.4-1.5,1.5c0,4,0,8,0,12
		c0,1.2,0.5,1.4,1.5,1.4c4.1,0,8.3,0,12.4,0c1.8,0,1.8,0,1.8,1.7c0,1.6-0.1,3.1,0,4.7c0.1,1.3-0.4,1.7-1.7,1.7c-4-0.1-8,0-12,0
		c-2.1,0-2.1,0-2.1,2.1c0,3.6,0,7.1,0,10.7c0,1.1,0.3,1.6,1.4,1.5c1-0.1,2,0.1,3,0c1.2-0.1,1.5,0.4,1.4,1.5c-0.1,1.6,0,3.3,0,4.9
		c0,0.9-0.2,1.3-1.2,1.3c-6.3,0-12.7,0-19,0c-0.7,0-1.2-0.1-1.2-1c0-1.9,0-3.7,0-5.6c0-0.9,0.4-1.1,1.2-1.1c0.1,0,0.3,0,0.4,0
		c3.1-0.1,3.1-0.1,3.1-3.3c0-10.6,0-21.2,0-31.9c0-2.1,0-2.1-2.1-2.1c-3.5,0-3.5,0-3.5-3.5c0-1.3-0.6-3,0.3-3.9
		c0.9-0.8,2.5-0.3,3.7-0.3C598.5,501,603.4,501,608.3,501z"/>
	<path class="st1" d="M654.6,527.3c0-5.6,0-11.1,0-16.7c0-1.8,0-1.9,1.9-1.9c2.3,0,4.7-0.1,7,0.2c4.6,0.6,7.7,3,9.4,7.3
		c1.3,3.5,1.5,7.2,1.5,10.9c0,3.4-0.3,6.8-1.4,10.1c-1.9,5.7-5.6,8.4-11.6,8.5c-1.7,0-3.4-0.1-5.1,0c-1.4,0.1-1.7-0.5-1.7-1.7
		C654.7,538.5,654.6,532.9,654.6,527.3z"/>
	<path class="st1" d="M711.8,517.2c0-2.3,0-4.6,0-6.8c0-1.2,0.3-1.7,1.5-1.6c2.1,0.1,4.1-0.1,6.2,0.3c3.4,0.6,5.5,2.5,6.2,5.9
		c0.5,2,0.3,4-0.3,5.9c-1.1,3.1-3.5,4.6-6.6,4.9c-1.9,0.2-3.8,0-5.8,0.1c-0.9,0-1.2-0.4-1.2-1.3C711.8,522,711.8,519.6,711.8,517.2z
		"/>
</g>
</svg>
